M48
;DRILL file {KiCad 4.0.3+e1-6302~38~ubuntu14.04.1-stable} date Tue Aug 16 14:17:53 2016
;FORMAT={-:-/ absolute / inch / decimal}
FMAT,2
INCH,TZ
T1C0.013
T2C0.040
T3C0.100
T4C0.035
%
G90
G05
M72
T1
X6.125Y-4.
X6.15Y-4.225
X6.175Y-3.975
X6.175Y-4.15
X6.2275Y-4.0375
X6.2275Y-4.1
X6.5375Y-4.225
X6.6Y-3.825
X6.6Y-4.
X6.65Y-4.225
X6.675Y-4.
X6.7125Y-3.8875
X6.7125Y-4.225
X6.75Y-4.
X6.75Y-4.225
X6.8125Y-3.8625
X6.85Y-3.8625
X6.87Y-4.195
X6.882Y-3.9
X6.9Y-4.225
X6.935Y-3.99
T2
X6.4Y-3.7
X6.4Y-4.4
X6.5Y-3.7
X6.5Y-4.4
X6.6Y-3.7
X6.6Y-4.4
X6.7Y-3.7
X6.7Y-4.4
X6.8Y-3.7
X6.8Y-4.4
X6.9Y-3.7
X6.9Y-4.4
X7.Y-3.7
X7.Y-4.4
X7.1Y-3.7
X7.1Y-4.4
T3
X5.8169Y-3.7205
X5.8169Y-4.3799
X7.0709Y-4.0472
T4
X5.9085Y-3.9634
X5.9085Y-4.1366
T0
M30
