G04 #@! TF.FileFunction,Copper,L1,Top,Signal*
%FSLAX46Y46*%
G04 Gerber Fmt 4.6, Leading zero omitted, Abs format (unit mm)*
G04 Created by KiCad (PCBNEW 4.0.3+e1-6302~38~ubuntu14.04.1-stable) date Tue Aug 16 14:14:18 2016*
%MOMM*%
%LPD*%
G01*
G04 APERTURE LIST*
%ADD10C,0.100000*%
%ADD11R,1.500000X1.250000*%
%ADD12R,2.000000X2.500000*%
%ADD13R,2.301240X0.500380*%
%ADD14R,2.499360X1.998980*%
%ADD15R,1.727200X2.032000*%
%ADD16O,1.727200X2.032000*%
%ADD17R,1.500000X1.300000*%
%ADD18R,0.406400X1.270000*%
%ADD19C,0.685800*%
%ADD20C,2.900000*%
%ADD21C,0.304800*%
%ADD22C,0.250000*%
%ADD23C,0.254000*%
G04 APERTURE END LIST*
D10*
D11*
X156825000Y-111760000D03*
X154325000Y-111760000D03*
D12*
X153575000Y-93980000D03*
X157575000Y-93980000D03*
D11*
X161270000Y-98425000D03*
X158770000Y-98425000D03*
X161270000Y-107315000D03*
X158770000Y-107315000D03*
X180350000Y-99500000D03*
X177850000Y-99500000D03*
D13*
X152674320Y-101269800D03*
X152674320Y-102069900D03*
X152674320Y-102870000D03*
X152674320Y-103670100D03*
X152674320Y-104470200D03*
D14*
X152575260Y-98419920D03*
X147076160Y-98419920D03*
X152575260Y-107320080D03*
X147076160Y-107320080D03*
D15*
X162560000Y-111760000D03*
D16*
X165100000Y-111760000D03*
X167640000Y-111760000D03*
X170180000Y-111760000D03*
X172720000Y-111760000D03*
X175260000Y-111760000D03*
X177800000Y-111760000D03*
X180340000Y-111760000D03*
D15*
X162560000Y-93980000D03*
D16*
X165100000Y-93980000D03*
X167640000Y-93980000D03*
X170180000Y-93980000D03*
X172720000Y-93980000D03*
X175260000Y-93980000D03*
X177800000Y-93980000D03*
X180340000Y-93980000D03*
D17*
X164545000Y-101600000D03*
X161845000Y-101600000D03*
X164545000Y-104140000D03*
X161845000Y-104140000D03*
D18*
X173736000Y-100203000D03*
X173101000Y-100203000D03*
X172440600Y-100203000D03*
X171780200Y-100203000D03*
X171145200Y-100203000D03*
X170484800Y-100203000D03*
X169824400Y-100203000D03*
X169189400Y-100203000D03*
X168529000Y-100203000D03*
X167894000Y-100203000D03*
X167894000Y-105537000D03*
X168529000Y-105537000D03*
X169189400Y-105537000D03*
X169824400Y-105537000D03*
X170484800Y-105537000D03*
X171145200Y-105537000D03*
X171780200Y-105537000D03*
X172440600Y-105537000D03*
X173101000Y-105537000D03*
X173736000Y-105537000D03*
D17*
X180450000Y-106300000D03*
X177750000Y-106300000D03*
D19*
X170497500Y-107315000D03*
X166052500Y-107315000D03*
X156210000Y-107315000D03*
X155575000Y-101600000D03*
D20*
X147750000Y-94500000D03*
X147750000Y-111250000D03*
X179600000Y-102800000D03*
D19*
X176149000Y-101346000D03*
X174802800Y-99060000D03*
X156845000Y-105410000D03*
X156845000Y-100965000D03*
X171450000Y-107315000D03*
X175260000Y-107315000D03*
X167640000Y-97155000D03*
X170497500Y-98742500D03*
X158178500Y-102552500D03*
X158178500Y-104140000D03*
X167640000Y-101600000D03*
X168910000Y-107315000D03*
X174498000Y-106553000D03*
X171450000Y-101600000D03*
X173037500Y-98107500D03*
X173990000Y-98107500D03*
X169545000Y-101600000D03*
D21*
X170497500Y-107315000D02*
X170497500Y-105549700D01*
X169545000Y-108267500D02*
X170497500Y-107315000D01*
X166052500Y-107315000D02*
X167005000Y-108267500D01*
X167005000Y-108267500D02*
X169545000Y-108267500D01*
X170497500Y-105549700D02*
X170484800Y-105537000D01*
X154940000Y-100965000D02*
X155575000Y-101600000D01*
X154940000Y-100965000D02*
X154940000Y-95885000D01*
X154622500Y-101282500D02*
X154940000Y-100965000D01*
X152674320Y-101269800D02*
X154622500Y-101282500D01*
X154940000Y-95885000D02*
X153670000Y-94615000D01*
X156210000Y-109220000D02*
X156845000Y-109855000D01*
X156210000Y-107315000D02*
X156210000Y-109220000D01*
X156845000Y-109855000D02*
X156845000Y-111760000D01*
X147800000Y-94550000D02*
X147750000Y-94500000D01*
X147076160Y-97223840D02*
X147800000Y-96500000D01*
X147800000Y-96500000D02*
X147800000Y-96100000D01*
X147076160Y-98419920D02*
X147076160Y-97223840D01*
X147800000Y-96100000D02*
X147800000Y-94550000D01*
X180350000Y-99500000D02*
X180350000Y-100350000D01*
X179600000Y-101100000D02*
X179600000Y-102800000D01*
X180350000Y-100350000D02*
X179600000Y-101100000D01*
X156210000Y-106045000D02*
X155575000Y-106045000D01*
X155575000Y-106045000D02*
X154940000Y-105410000D01*
X154325000Y-111760000D02*
X148260000Y-111760000D01*
X148260000Y-111760000D02*
X147750000Y-111250000D01*
X147076160Y-110576160D02*
X147750000Y-111250000D01*
X147076160Y-110576160D02*
X147076160Y-109600000D01*
X147076160Y-109600000D02*
X147076160Y-107320080D01*
X176159000Y-101336000D02*
X176149000Y-101346000D01*
X180350000Y-99500000D02*
X180350000Y-98752500D01*
X174802800Y-99060000D02*
X175463200Y-98399600D01*
X175463200Y-98399600D02*
X180022500Y-98425000D01*
X180350000Y-98752500D02*
X180022500Y-98425000D01*
X152674320Y-104470200D02*
X154000200Y-104470200D01*
X154000200Y-104470200D02*
X154940000Y-105410000D01*
X154940000Y-109220000D02*
X154305000Y-109855000D01*
X154305000Y-109855000D02*
X154305000Y-111760000D01*
X154940000Y-105410000D02*
X154940000Y-107315000D01*
X154940000Y-107315000D02*
X154940000Y-109220000D01*
X157480000Y-107315000D02*
X156210000Y-106045000D01*
X156845000Y-105410000D02*
X156210000Y-106045000D01*
X156825000Y-99715000D02*
X156825000Y-100945000D01*
X156825000Y-100945000D02*
X156845000Y-100965000D01*
X156845000Y-94615000D02*
X156825000Y-99715000D01*
X171145200Y-105537000D02*
X171145200Y-107010200D01*
X171145200Y-107010200D02*
X171450000Y-107315000D01*
X175260000Y-107632500D02*
X175260000Y-111760000D01*
X175260000Y-107315000D02*
X175260000Y-107632500D01*
X163195000Y-97155000D02*
X160040000Y-97155000D01*
X160040000Y-97155000D02*
X158770000Y-98425000D01*
X167640000Y-97155000D02*
X163195000Y-97155000D01*
X170484800Y-98755200D02*
X170497500Y-98742500D01*
X170484800Y-100203000D02*
X170484800Y-98755200D01*
X158770000Y-98425000D02*
X158115000Y-98425000D01*
X158115000Y-98425000D02*
X156825000Y-99715000D01*
X158770000Y-107315000D02*
X157480000Y-107315000D01*
X161845000Y-101600000D02*
X159131000Y-101600000D01*
X158178500Y-102552500D02*
X157480000Y-102552500D01*
X154774900Y-102069900D02*
X152674320Y-102069900D01*
X155257500Y-102552500D02*
X157480000Y-102552500D01*
X154774900Y-102069900D02*
X155257500Y-102552500D01*
X159131000Y-101600000D02*
X158178500Y-102552500D01*
X161270000Y-98425000D02*
X161270000Y-99675000D01*
X161845000Y-100250000D02*
X161845000Y-101600000D01*
X161270000Y-99675000D02*
X161845000Y-100250000D01*
X152674320Y-102870000D02*
X154305000Y-102870000D01*
X155575000Y-104140000D02*
X158178500Y-104140000D01*
X158178500Y-104140000D02*
X161845000Y-104140000D01*
X154305000Y-102870000D02*
X155575000Y-104140000D01*
X161845000Y-104140000D02*
X161845000Y-105490000D01*
X161270000Y-106065000D02*
X161270000Y-107315000D01*
X161845000Y-105490000D02*
X161270000Y-106065000D01*
X178500000Y-105000000D02*
X177263000Y-105000000D01*
X176784000Y-104521000D02*
X176763000Y-104500000D01*
X176763000Y-104500000D02*
X175514000Y-103251000D01*
X171069000Y-103251000D02*
X175514000Y-103251000D01*
X179250000Y-105750000D02*
X178500000Y-105000000D01*
X179250000Y-105750000D02*
X179800000Y-106300000D01*
X177263000Y-105000000D02*
X176784000Y-104521000D01*
X180450000Y-106300000D02*
X179800000Y-106300000D01*
X177850000Y-99500000D02*
X177050000Y-99500000D01*
X176550000Y-100000000D02*
X174950000Y-101600000D01*
X174950000Y-101600000D02*
X172720000Y-101600000D01*
X177050000Y-99500000D02*
X176550000Y-100000000D01*
X171069000Y-103251000D02*
X169799000Y-103251000D01*
X169189400Y-103860600D02*
X169189400Y-105537000D01*
X169799000Y-103251000D02*
X169189400Y-103860600D01*
X180450000Y-106300000D02*
X180450000Y-107205000D01*
X177800000Y-109855000D02*
X180340000Y-107315000D01*
X177800000Y-109855000D02*
X177800000Y-111760000D01*
X180450000Y-107205000D02*
X180340000Y-107315000D01*
X172085000Y-102235000D02*
X172720000Y-101600000D01*
X171069000Y-103251000D02*
X172085000Y-102235000D01*
X177850000Y-99500000D02*
X177830000Y-99500000D01*
X172440600Y-101244400D02*
X172720000Y-101600000D01*
X172440600Y-100203000D02*
X172440600Y-101244400D01*
X180370000Y-106470000D02*
X180200000Y-106300000D01*
X180370000Y-106130000D02*
X180200000Y-106300000D01*
X172440600Y-105537000D02*
X172440600Y-106527600D01*
X164147500Y-113347500D02*
X162560000Y-111760000D01*
X165735000Y-113347500D02*
X164147500Y-113347500D01*
X166370000Y-112712500D02*
X165735000Y-113347500D01*
X166370000Y-109855000D02*
X166370000Y-112712500D01*
X166687500Y-109537500D02*
X166370000Y-109855000D01*
X170815000Y-109537500D02*
X166687500Y-109537500D01*
X171005500Y-109537500D02*
X170815000Y-109537500D01*
X172656500Y-107886500D02*
X171005500Y-109537500D01*
X172656500Y-106743500D02*
X172656500Y-107886500D01*
X172440600Y-106527600D02*
X172656500Y-106743500D01*
X171780200Y-105537000D02*
X171780200Y-106629200D01*
X170497500Y-108394500D02*
X169989500Y-108902500D01*
X171323000Y-108394500D02*
X170497500Y-108394500D01*
X172148500Y-107569000D02*
X171323000Y-108394500D01*
X172148500Y-106997500D02*
X172148500Y-107569000D01*
X171780200Y-106629200D02*
X172148500Y-106997500D01*
X165100000Y-111760000D02*
X165100000Y-109220000D01*
X165417500Y-108902500D02*
X165100000Y-109220000D01*
X169989500Y-108902500D02*
X165417500Y-108902500D01*
X167894000Y-101346000D02*
X167894000Y-100203000D01*
X167640000Y-101600000D02*
X167894000Y-101346000D01*
X170180000Y-111760000D02*
X170180000Y-111188500D01*
X170180000Y-111188500D02*
X173228000Y-108140500D01*
X173101000Y-106362500D02*
X173101000Y-105537000D01*
X173228000Y-106489500D02*
X173101000Y-106362500D01*
X173228000Y-108140500D02*
X173228000Y-106489500D01*
X170180000Y-111760000D02*
X170497500Y-111760000D01*
X177750000Y-106300000D02*
X176912000Y-106300000D01*
X176412000Y-105800000D02*
X176022000Y-105410000D01*
X176022000Y-105410000D02*
X176022000Y-104521000D01*
X176022000Y-104521000D02*
X175641000Y-104140000D01*
X175641000Y-104140000D02*
X170180000Y-104140000D01*
X169824400Y-104495600D02*
X169824400Y-105537000D01*
X170180000Y-104140000D02*
X169824400Y-104495600D01*
X176912000Y-106300000D02*
X176412000Y-105800000D01*
X169824400Y-106718100D02*
X169824400Y-105537000D01*
X168910000Y-107315000D02*
X169824400Y-106718100D01*
X178000000Y-105835000D02*
X178000000Y-106300000D01*
X173736000Y-105537000D02*
X173736000Y-106426000D01*
X173863000Y-106553000D02*
X174498000Y-106553000D01*
X173736000Y-106426000D02*
X173863000Y-106553000D01*
X171780200Y-100203000D02*
X171780200Y-101269800D01*
X171780200Y-101269800D02*
X171450000Y-101600000D01*
X173037500Y-98107500D02*
X173101000Y-98806000D01*
X173101000Y-100203000D02*
X173101000Y-98806000D01*
X170180000Y-93980000D02*
X170180000Y-95885000D01*
X168529000Y-98806000D02*
X168529000Y-100203000D01*
X170180000Y-95885000D02*
X168529000Y-97536000D01*
X168529000Y-97536000D02*
X168529000Y-98806000D01*
X173990000Y-98107500D02*
X173990000Y-99949000D01*
X173990000Y-99949000D02*
X173736000Y-100203000D01*
X169545000Y-97472500D02*
X169545000Y-99060000D01*
X175260000Y-93980000D02*
X175260000Y-95885000D01*
X174625000Y-96520000D02*
X170497500Y-96520000D01*
X175260000Y-95885000D02*
X174625000Y-96520000D01*
X170497500Y-96520000D02*
X169545000Y-97472500D01*
X169824400Y-99339400D02*
X169824400Y-100203000D01*
X169545000Y-99060000D02*
X169824400Y-99339400D01*
X169862500Y-100164900D02*
X169824400Y-100203000D01*
X169189400Y-101244400D02*
X169545000Y-101600000D01*
X169189400Y-101244400D02*
X169189400Y-100203000D01*
X164545000Y-101600000D02*
X166370000Y-101600000D01*
X168529000Y-103759000D02*
X168529000Y-105537000D01*
X166370000Y-101600000D02*
X168529000Y-103759000D01*
D22*
X164545000Y-104140000D02*
X165100000Y-104140000D01*
D21*
X165100000Y-104140000D02*
X166497000Y-105537000D01*
X166497000Y-105537000D02*
X167894000Y-105537000D01*
X171450000Y-98107500D02*
X171450000Y-99060000D01*
X180340000Y-95885000D02*
X178752500Y-97155000D01*
X178752500Y-97155000D02*
X172402500Y-97155000D01*
X172402500Y-97155000D02*
X171450000Y-98107500D01*
X180340000Y-93980000D02*
X180340000Y-95885000D01*
X171132500Y-99377500D02*
X171132500Y-100190300D01*
X171450000Y-99060000D02*
X171132500Y-99377500D01*
X171132500Y-100190300D02*
X171145200Y-100203000D01*
D23*
G36*
X152169427Y-92558715D02*
X152134741Y-92730000D01*
X152134741Y-95230000D01*
X152164850Y-95390015D01*
X152259419Y-95536980D01*
X152403715Y-95635573D01*
X152575000Y-95670259D01*
X153899075Y-95670259D01*
X154355800Y-96126984D01*
X154355800Y-100696549D01*
X154114685Y-100694977D01*
X153996225Y-100614037D01*
X153824940Y-100579351D01*
X151523700Y-100579351D01*
X151363685Y-100609460D01*
X151216720Y-100704029D01*
X151118127Y-100848325D01*
X151083441Y-101019610D01*
X151083441Y-101519990D01*
X151112674Y-101675351D01*
X151083441Y-101819710D01*
X151083441Y-102320090D01*
X151112674Y-102475451D01*
X151083441Y-102619810D01*
X151083441Y-103120190D01*
X151112674Y-103275551D01*
X151083441Y-103419910D01*
X151083441Y-103920290D01*
X151113550Y-104080305D01*
X151113940Y-104080911D01*
X151091900Y-104134119D01*
X151091900Y-104336850D01*
X151199850Y-104444800D01*
X152648920Y-104444800D01*
X152648920Y-104424800D01*
X152699720Y-104424800D01*
X152699720Y-104444800D01*
X154148790Y-104444800D01*
X154256740Y-104336850D01*
X154256740Y-104134119D01*
X154233338Y-104077623D01*
X154265199Y-103920290D01*
X154265199Y-103656383D01*
X155161908Y-104553092D01*
X155351436Y-104679730D01*
X155575000Y-104724200D01*
X157667045Y-104724200D01*
X157739095Y-104796376D01*
X158023727Y-104914565D01*
X158331921Y-104914834D01*
X158616759Y-104797141D01*
X158689828Y-104724200D01*
X160654741Y-104724200D01*
X160654741Y-104790000D01*
X160684850Y-104950015D01*
X160779419Y-105096980D01*
X160923715Y-105195573D01*
X161095000Y-105230259D01*
X161260800Y-105230259D01*
X161260800Y-105248016D01*
X160856908Y-105651908D01*
X160730270Y-105841436D01*
X160685800Y-106065000D01*
X160685800Y-106249741D01*
X160520000Y-106249741D01*
X160359985Y-106279850D01*
X160213020Y-106374419D01*
X160114427Y-106518715D01*
X160079741Y-106690000D01*
X160079741Y-107940000D01*
X160109850Y-108100015D01*
X160204419Y-108246980D01*
X160348715Y-108345573D01*
X160520000Y-108380259D01*
X162020000Y-108380259D01*
X162180015Y-108350150D01*
X162326980Y-108255581D01*
X162425573Y-108111285D01*
X162460259Y-107940000D01*
X162460259Y-106690000D01*
X162430150Y-106529985D01*
X162335581Y-106383020D01*
X162191285Y-106284427D01*
X162020000Y-106249741D01*
X161911443Y-106249741D01*
X162258092Y-105903092D01*
X162384731Y-105713563D01*
X162429200Y-105490000D01*
X162429200Y-105230259D01*
X162595000Y-105230259D01*
X162755015Y-105200150D01*
X162901980Y-105105581D01*
X163000573Y-104961285D01*
X163035259Y-104790000D01*
X163035259Y-103490000D01*
X163005150Y-103329985D01*
X162910581Y-103183020D01*
X162766285Y-103084427D01*
X162595000Y-103049741D01*
X161095000Y-103049741D01*
X160934985Y-103079850D01*
X160788020Y-103174419D01*
X160689427Y-103318715D01*
X160654741Y-103490000D01*
X160654741Y-103555800D01*
X158689955Y-103555800D01*
X158617905Y-103483624D01*
X158333273Y-103365435D01*
X158025079Y-103365166D01*
X157740241Y-103482859D01*
X157667172Y-103555800D01*
X155816984Y-103555800D01*
X155397884Y-103136700D01*
X157667045Y-103136700D01*
X157739095Y-103208876D01*
X158023727Y-103327065D01*
X158331921Y-103327334D01*
X158616759Y-103209641D01*
X158834876Y-102991905D01*
X158953065Y-102707273D01*
X158953155Y-102604029D01*
X159372983Y-102184200D01*
X160654741Y-102184200D01*
X160654741Y-102250000D01*
X160684850Y-102410015D01*
X160779419Y-102556980D01*
X160923715Y-102655573D01*
X161095000Y-102690259D01*
X162595000Y-102690259D01*
X162755015Y-102660150D01*
X162901980Y-102565581D01*
X163000573Y-102421285D01*
X163035259Y-102250000D01*
X163035259Y-100950000D01*
X163005150Y-100789985D01*
X162910581Y-100643020D01*
X162766285Y-100544427D01*
X162595000Y-100509741D01*
X162429200Y-100509741D01*
X162429200Y-100250000D01*
X162384731Y-100026437D01*
X162258092Y-99836908D01*
X161911443Y-99490259D01*
X162020000Y-99490259D01*
X162180015Y-99460150D01*
X162326980Y-99365581D01*
X162425573Y-99221285D01*
X162460259Y-99050000D01*
X162460259Y-97800000D01*
X162430150Y-97639985D01*
X162335581Y-97493020D01*
X162191285Y-97394427D01*
X162020000Y-97359741D01*
X160520000Y-97359741D01*
X160359985Y-97389850D01*
X160213020Y-97484419D01*
X160114427Y-97628715D01*
X160079741Y-97800000D01*
X160079741Y-99050000D01*
X160109850Y-99210015D01*
X160204419Y-99356980D01*
X160348715Y-99455573D01*
X160520000Y-99490259D01*
X160685800Y-99490259D01*
X160685800Y-99675000D01*
X160730270Y-99898564D01*
X160798047Y-100000000D01*
X160856908Y-100088092D01*
X161260800Y-100491984D01*
X161260800Y-100509741D01*
X161095000Y-100509741D01*
X160934985Y-100539850D01*
X160788020Y-100634419D01*
X160689427Y-100778715D01*
X160654741Y-100950000D01*
X160654741Y-101015800D01*
X159131000Y-101015800D01*
X158907436Y-101060270D01*
X158717908Y-101186908D01*
X158717906Y-101186911D01*
X158127061Y-101777755D01*
X158025079Y-101777666D01*
X157740241Y-101895359D01*
X157667172Y-101968300D01*
X156260901Y-101968300D01*
X156349565Y-101754773D01*
X156349834Y-101446579D01*
X156232141Y-101161741D01*
X156014405Y-100943624D01*
X155729773Y-100825435D01*
X155626529Y-100825345D01*
X155524200Y-100723016D01*
X155524200Y-98558350D01*
X157588200Y-98558350D01*
X157588200Y-99135891D01*
X157653938Y-99294595D01*
X157775405Y-99416063D01*
X157934110Y-99481800D01*
X158636650Y-99481800D01*
X158744600Y-99373850D01*
X158744600Y-98450400D01*
X158795400Y-98450400D01*
X158795400Y-99373850D01*
X158903350Y-99481800D01*
X159605890Y-99481800D01*
X159764595Y-99416063D01*
X159886062Y-99294595D01*
X159951800Y-99135891D01*
X159951800Y-98558350D01*
X159843850Y-98450400D01*
X158795400Y-98450400D01*
X158744600Y-98450400D01*
X157696150Y-98450400D01*
X157588200Y-98558350D01*
X155524200Y-98558350D01*
X155524200Y-97714109D01*
X157588200Y-97714109D01*
X157588200Y-98291650D01*
X157696150Y-98399600D01*
X158744600Y-98399600D01*
X158744600Y-97476150D01*
X158795400Y-97476150D01*
X158795400Y-98399600D01*
X159843850Y-98399600D01*
X159951800Y-98291650D01*
X159951800Y-97714109D01*
X159886062Y-97555405D01*
X159764595Y-97433937D01*
X159605890Y-97368200D01*
X158903350Y-97368200D01*
X158795400Y-97476150D01*
X158744600Y-97476150D01*
X158636650Y-97368200D01*
X157934110Y-97368200D01*
X157775405Y-97433937D01*
X157653938Y-97555405D01*
X157588200Y-97714109D01*
X155524200Y-97714109D01*
X155524200Y-95885000D01*
X155479730Y-95661436D01*
X155353092Y-95471908D01*
X155015259Y-95134075D01*
X155015259Y-94113350D01*
X156143200Y-94113350D01*
X156143200Y-95315891D01*
X156208938Y-95474595D01*
X156330405Y-95596063D01*
X156489110Y-95661800D01*
X157441650Y-95661800D01*
X157549600Y-95553850D01*
X157549600Y-94005400D01*
X157600400Y-94005400D01*
X157600400Y-95553850D01*
X157708350Y-95661800D01*
X158660890Y-95661800D01*
X158819595Y-95596063D01*
X158941062Y-95474595D01*
X159006800Y-95315891D01*
X159006800Y-94113350D01*
X158898850Y-94005400D01*
X157600400Y-94005400D01*
X157549600Y-94005400D01*
X156251150Y-94005400D01*
X156143200Y-94113350D01*
X155015259Y-94113350D01*
X155015259Y-92730000D01*
X154985150Y-92569985D01*
X154911031Y-92454800D01*
X156239543Y-92454800D01*
X156208938Y-92485405D01*
X156143200Y-92644109D01*
X156143200Y-93846650D01*
X156251150Y-93954600D01*
X157549600Y-93954600D01*
X157549600Y-93934600D01*
X157600400Y-93934600D01*
X157600400Y-93954600D01*
X158898850Y-93954600D01*
X159006800Y-93846650D01*
X159006800Y-92644109D01*
X158941062Y-92485405D01*
X158910457Y-92454800D01*
X181865200Y-92454800D01*
X181865200Y-113285200D01*
X166623484Y-113285200D01*
X166783092Y-113125592D01*
X166889046Y-112967021D01*
X167144272Y-113137558D01*
X167640000Y-113236164D01*
X168135728Y-113137558D01*
X168555986Y-112856750D01*
X168836794Y-112436492D01*
X168910000Y-112068459D01*
X168983206Y-112436492D01*
X169264014Y-112856750D01*
X169684272Y-113137558D01*
X170180000Y-113236164D01*
X170675728Y-113137558D01*
X171095986Y-112856750D01*
X171376794Y-112436492D01*
X171450000Y-112068459D01*
X171523206Y-112436492D01*
X171804014Y-112856750D01*
X172224272Y-113137558D01*
X172720000Y-113236164D01*
X173215728Y-113137558D01*
X173635986Y-112856750D01*
X173916794Y-112436492D01*
X173991552Y-112060657D01*
X174072927Y-112431595D01*
X174361975Y-112846347D01*
X174787739Y-113118914D01*
X175032306Y-113187632D01*
X175234600Y-113099578D01*
X175234600Y-111785400D01*
X175214600Y-111785400D01*
X175214600Y-111734600D01*
X175234600Y-111734600D01*
X175234600Y-110420422D01*
X175032306Y-110332368D01*
X174787739Y-110401086D01*
X174361975Y-110673653D01*
X174072927Y-111088405D01*
X173991552Y-111459343D01*
X173916794Y-111083508D01*
X173635986Y-110663250D01*
X173215728Y-110382442D01*
X172720000Y-110283836D01*
X172224272Y-110382442D01*
X171804014Y-110663250D01*
X171523206Y-111083508D01*
X171450000Y-111451541D01*
X171376794Y-111083508D01*
X171270402Y-110924282D01*
X173641092Y-108553592D01*
X173767730Y-108364064D01*
X173812200Y-108140500D01*
X173812200Y-107127095D01*
X173863000Y-107137200D01*
X173986545Y-107137200D01*
X174058595Y-107209376D01*
X174343227Y-107327565D01*
X174651421Y-107327834D01*
X174936259Y-107210141D01*
X175154376Y-106992405D01*
X175272565Y-106707773D01*
X175272834Y-106399579D01*
X175155141Y-106114741D01*
X174937405Y-105896624D01*
X174652773Y-105778435D01*
X174379459Y-105778196D01*
X174379459Y-104902000D01*
X174349350Y-104741985D01*
X174337906Y-104724200D01*
X175399016Y-104724200D01*
X175437800Y-104762984D01*
X175437800Y-105410000D01*
X175482270Y-105633564D01*
X175604438Y-105816402D01*
X175608908Y-105823092D01*
X176498908Y-106713092D01*
X176559741Y-106753739D01*
X176559741Y-106950000D01*
X176589850Y-107110015D01*
X176684419Y-107256980D01*
X176828715Y-107355573D01*
X177000000Y-107390259D01*
X178500000Y-107390259D01*
X178660015Y-107360150D01*
X178806980Y-107265581D01*
X178905573Y-107121285D01*
X178940259Y-106950000D01*
X178940259Y-106266443D01*
X179259741Y-106585924D01*
X179259741Y-106950000D01*
X179289850Y-107110015D01*
X179384419Y-107256980D01*
X179495761Y-107333056D01*
X177386908Y-109441908D01*
X177260270Y-109631436D01*
X177215800Y-109855000D01*
X177215800Y-110441557D01*
X176884014Y-110663250D01*
X176603206Y-111083508D01*
X176528448Y-111459343D01*
X176447073Y-111088405D01*
X176158025Y-110673653D01*
X175732261Y-110401086D01*
X175487694Y-110332368D01*
X175285400Y-110420422D01*
X175285400Y-111734600D01*
X175305400Y-111734600D01*
X175305400Y-111785400D01*
X175285400Y-111785400D01*
X175285400Y-113099578D01*
X175487694Y-113187632D01*
X175732261Y-113118914D01*
X176158025Y-112846347D01*
X176447073Y-112431595D01*
X176528448Y-112060657D01*
X176603206Y-112436492D01*
X176884014Y-112856750D01*
X177304272Y-113137558D01*
X177800000Y-113236164D01*
X178295728Y-113137558D01*
X178715986Y-112856750D01*
X178996794Y-112436492D01*
X179070000Y-112068459D01*
X179143206Y-112436492D01*
X179424014Y-112856750D01*
X179844272Y-113137558D01*
X180340000Y-113236164D01*
X180835728Y-113137558D01*
X181255986Y-112856750D01*
X181536794Y-112436492D01*
X181635400Y-111940764D01*
X181635400Y-111579236D01*
X181536794Y-111083508D01*
X181255986Y-110663250D01*
X180835728Y-110382442D01*
X180340000Y-110283836D01*
X179844272Y-110382442D01*
X179424014Y-110663250D01*
X179143206Y-111083508D01*
X179070000Y-111451541D01*
X178996794Y-111083508D01*
X178715986Y-110663250D01*
X178384200Y-110441557D01*
X178384200Y-110096984D01*
X180753089Y-107728094D01*
X180753092Y-107728092D01*
X180863089Y-107618094D01*
X180863092Y-107618092D01*
X180989730Y-107428564D01*
X180997349Y-107390259D01*
X181200000Y-107390259D01*
X181360015Y-107360150D01*
X181506980Y-107265581D01*
X181605573Y-107121285D01*
X181640259Y-106950000D01*
X181640259Y-105650000D01*
X181610150Y-105489985D01*
X181515581Y-105343020D01*
X181371285Y-105244427D01*
X181200000Y-105209741D01*
X179700000Y-105209741D01*
X179561909Y-105235725D01*
X178913092Y-104586908D01*
X178887379Y-104569727D01*
X178723564Y-104460270D01*
X178500000Y-104415800D01*
X177504984Y-104415800D01*
X177197092Y-104107908D01*
X177197089Y-104107906D01*
X177176092Y-104086908D01*
X175927092Y-102837908D01*
X175899093Y-102819200D01*
X175737564Y-102711270D01*
X175514000Y-102666800D01*
X172479384Y-102666800D01*
X172961984Y-102184200D01*
X174950000Y-102184200D01*
X175173564Y-102139730D01*
X175363092Y-102013092D01*
X176879344Y-100496840D01*
X176928715Y-100530573D01*
X177100000Y-100565259D01*
X178600000Y-100565259D01*
X178760015Y-100535150D01*
X178906980Y-100440581D01*
X179005573Y-100296285D01*
X179040259Y-100125000D01*
X179040259Y-99633350D01*
X179168200Y-99633350D01*
X179168200Y-100210891D01*
X179233938Y-100369595D01*
X179355405Y-100491063D01*
X179514110Y-100556800D01*
X180216650Y-100556800D01*
X180324600Y-100448850D01*
X180324600Y-99525400D01*
X180375400Y-99525400D01*
X180375400Y-100448850D01*
X180483350Y-100556800D01*
X181185890Y-100556800D01*
X181344595Y-100491063D01*
X181466062Y-100369595D01*
X181531800Y-100210891D01*
X181531800Y-99633350D01*
X181423850Y-99525400D01*
X180375400Y-99525400D01*
X180324600Y-99525400D01*
X179276150Y-99525400D01*
X179168200Y-99633350D01*
X179040259Y-99633350D01*
X179040259Y-98875000D01*
X179024098Y-98789109D01*
X179168200Y-98789109D01*
X179168200Y-99366650D01*
X179276150Y-99474600D01*
X180324600Y-99474600D01*
X180324600Y-98551150D01*
X180375400Y-98551150D01*
X180375400Y-99474600D01*
X181423850Y-99474600D01*
X181531800Y-99366650D01*
X181531800Y-98789109D01*
X181466062Y-98630405D01*
X181344595Y-98508937D01*
X181185890Y-98443200D01*
X180483350Y-98443200D01*
X180375400Y-98551150D01*
X180324600Y-98551150D01*
X180216650Y-98443200D01*
X179514110Y-98443200D01*
X179355405Y-98508937D01*
X179233938Y-98630405D01*
X179168200Y-98789109D01*
X179024098Y-98789109D01*
X179010150Y-98714985D01*
X178915581Y-98568020D01*
X178771285Y-98469427D01*
X178600000Y-98434741D01*
X177100000Y-98434741D01*
X176939985Y-98464850D01*
X176793020Y-98559419D01*
X176694427Y-98703715D01*
X176659741Y-98875000D01*
X176659741Y-99071652D01*
X176636908Y-99086908D01*
X174708016Y-101015800D01*
X174340322Y-101015800D01*
X174344773Y-101009285D01*
X174379459Y-100838000D01*
X174379459Y-100385725D01*
X174403092Y-100362092D01*
X174420292Y-100336350D01*
X174529730Y-100172564D01*
X174574200Y-99949000D01*
X174574200Y-98618955D01*
X174646376Y-98546905D01*
X174764565Y-98262273D01*
X174764834Y-97954079D01*
X174676048Y-97739200D01*
X178752500Y-97739200D01*
X178833154Y-97723157D01*
X178915093Y-97716118D01*
X178944062Y-97701096D01*
X178976064Y-97694730D01*
X179044439Y-97649044D01*
X179117447Y-97611184D01*
X180704947Y-96341184D01*
X180725961Y-96316220D01*
X180753092Y-96298092D01*
X180798781Y-96229713D01*
X180851741Y-96166799D01*
X180861602Y-96135694D01*
X180879730Y-96108564D01*
X180895773Y-96027909D01*
X180920627Y-95949514D01*
X180917834Y-95917003D01*
X180924200Y-95885000D01*
X180924200Y-95298443D01*
X181255986Y-95076750D01*
X181536794Y-94656492D01*
X181635400Y-94160764D01*
X181635400Y-93799236D01*
X181536794Y-93303508D01*
X181255986Y-92883250D01*
X180835728Y-92602442D01*
X180340000Y-92503836D01*
X179844272Y-92602442D01*
X179424014Y-92883250D01*
X179143206Y-93303508D01*
X179070000Y-93671541D01*
X178996794Y-93303508D01*
X178715986Y-92883250D01*
X178295728Y-92602442D01*
X177800000Y-92503836D01*
X177304272Y-92602442D01*
X176884014Y-92883250D01*
X176603206Y-93303508D01*
X176530000Y-93671541D01*
X176456794Y-93303508D01*
X176175986Y-92883250D01*
X175755728Y-92602442D01*
X175260000Y-92503836D01*
X174764272Y-92602442D01*
X174344014Y-92883250D01*
X174063206Y-93303508D01*
X173990000Y-93671541D01*
X173916794Y-93303508D01*
X173635986Y-92883250D01*
X173215728Y-92602442D01*
X172720000Y-92503836D01*
X172224272Y-92602442D01*
X171804014Y-92883250D01*
X171523206Y-93303508D01*
X171450000Y-93671541D01*
X171376794Y-93303508D01*
X171095986Y-92883250D01*
X170675728Y-92602442D01*
X170180000Y-92503836D01*
X169684272Y-92602442D01*
X169264014Y-92883250D01*
X168983206Y-93303508D01*
X168910000Y-93671541D01*
X168836794Y-93303508D01*
X168555986Y-92883250D01*
X168135728Y-92602442D01*
X167640000Y-92503836D01*
X167144272Y-92602442D01*
X166724014Y-92883250D01*
X166443206Y-93303508D01*
X166370000Y-93671541D01*
X166296794Y-93303508D01*
X166015986Y-92883250D01*
X165595728Y-92602442D01*
X165100000Y-92503836D01*
X164604272Y-92602442D01*
X164184014Y-92883250D01*
X163903206Y-93303508D01*
X163863859Y-93501320D01*
X163863859Y-92964000D01*
X163833750Y-92803985D01*
X163739181Y-92657020D01*
X163594885Y-92558427D01*
X163423600Y-92523741D01*
X161696400Y-92523741D01*
X161536385Y-92553850D01*
X161389420Y-92648419D01*
X161290827Y-92792715D01*
X161256141Y-92964000D01*
X161256141Y-94996000D01*
X161286250Y-95156015D01*
X161380819Y-95302980D01*
X161525115Y-95401573D01*
X161696400Y-95436259D01*
X163423600Y-95436259D01*
X163583615Y-95406150D01*
X163730580Y-95311581D01*
X163829173Y-95167285D01*
X163863859Y-94996000D01*
X163863859Y-94458680D01*
X163903206Y-94656492D01*
X164184014Y-95076750D01*
X164604272Y-95357558D01*
X165100000Y-95456164D01*
X165595728Y-95357558D01*
X166015986Y-95076750D01*
X166296794Y-94656492D01*
X166370000Y-94288459D01*
X166443206Y-94656492D01*
X166724014Y-95076750D01*
X167144272Y-95357558D01*
X167640000Y-95456164D01*
X168135728Y-95357558D01*
X168555986Y-95076750D01*
X168836794Y-94656492D01*
X168910000Y-94288459D01*
X168983206Y-94656492D01*
X169264014Y-95076750D01*
X169595800Y-95298443D01*
X169595800Y-95643017D01*
X168115908Y-97122908D01*
X167989270Y-97312436D01*
X167944800Y-97536000D01*
X167944800Y-99127741D01*
X167690800Y-99127741D01*
X167530785Y-99157850D01*
X167383820Y-99252419D01*
X167285227Y-99396715D01*
X167250541Y-99568000D01*
X167250541Y-100838000D01*
X167265328Y-100916585D01*
X167201741Y-100942859D01*
X166983624Y-101160595D01*
X166917067Y-101320883D01*
X166783092Y-101186908D01*
X166593564Y-101060270D01*
X166370000Y-101015800D01*
X165735259Y-101015800D01*
X165735259Y-100950000D01*
X165705150Y-100789985D01*
X165610581Y-100643020D01*
X165466285Y-100544427D01*
X165295000Y-100509741D01*
X163795000Y-100509741D01*
X163634985Y-100539850D01*
X163488020Y-100634419D01*
X163389427Y-100778715D01*
X163354741Y-100950000D01*
X163354741Y-102250000D01*
X163384850Y-102410015D01*
X163479419Y-102556980D01*
X163623715Y-102655573D01*
X163795000Y-102690259D01*
X165295000Y-102690259D01*
X165455015Y-102660150D01*
X165601980Y-102565581D01*
X165700573Y-102421285D01*
X165735259Y-102250000D01*
X165735259Y-102184200D01*
X166128016Y-102184200D01*
X167944800Y-104000984D01*
X167944800Y-104461741D01*
X167690800Y-104461741D01*
X167530785Y-104491850D01*
X167383820Y-104586419D01*
X167285227Y-104730715D01*
X167250541Y-104902000D01*
X167250541Y-104952800D01*
X166738984Y-104952800D01*
X165735259Y-103949075D01*
X165735259Y-103490000D01*
X165705150Y-103329985D01*
X165610581Y-103183020D01*
X165466285Y-103084427D01*
X165295000Y-103049741D01*
X163795000Y-103049741D01*
X163634985Y-103079850D01*
X163488020Y-103174419D01*
X163389427Y-103318715D01*
X163354741Y-103490000D01*
X163354741Y-104790000D01*
X163384850Y-104950015D01*
X163479419Y-105096980D01*
X163623715Y-105195573D01*
X163795000Y-105230259D01*
X165295000Y-105230259D01*
X165353136Y-105219320D01*
X166083908Y-105950092D01*
X166273436Y-106076730D01*
X166497000Y-106121200D01*
X167250541Y-106121200D01*
X167250541Y-106172000D01*
X167280650Y-106332015D01*
X167375219Y-106478980D01*
X167519515Y-106577573D01*
X167690800Y-106612259D01*
X168097200Y-106612259D01*
X168215696Y-106589962D01*
X168325800Y-106612259D01*
X168582101Y-106612259D01*
X168471741Y-106657859D01*
X168253624Y-106875595D01*
X168135435Y-107160227D01*
X168135166Y-107468421D01*
X168223952Y-107683300D01*
X167246983Y-107683300D01*
X166827245Y-107263561D01*
X166827334Y-107161579D01*
X166709641Y-106876741D01*
X166491905Y-106658624D01*
X166207273Y-106540435D01*
X165899079Y-106540166D01*
X165614241Y-106657859D01*
X165396124Y-106875595D01*
X165277935Y-107160227D01*
X165277666Y-107468421D01*
X165395359Y-107753259D01*
X165613095Y-107971376D01*
X165897727Y-108089565D01*
X166000971Y-108089655D01*
X166229617Y-108318300D01*
X165417500Y-108318300D01*
X165193937Y-108362769D01*
X165004408Y-108489408D01*
X164686908Y-108806908D01*
X164560270Y-108996436D01*
X164515800Y-109220000D01*
X164515800Y-110441557D01*
X164184014Y-110663250D01*
X163903206Y-111083508D01*
X163863859Y-111281320D01*
X163863859Y-110744000D01*
X163833750Y-110583985D01*
X163739181Y-110437020D01*
X163594885Y-110338427D01*
X163423600Y-110303741D01*
X161696400Y-110303741D01*
X161536385Y-110333850D01*
X161389420Y-110428419D01*
X161290827Y-110572715D01*
X161256141Y-110744000D01*
X161256141Y-112776000D01*
X161286250Y-112936015D01*
X161380819Y-113082980D01*
X161525115Y-113181573D01*
X161696400Y-113216259D01*
X163190075Y-113216259D01*
X163259016Y-113285200D01*
X145794800Y-113285200D01*
X145794800Y-111893350D01*
X153143200Y-111893350D01*
X153143200Y-112470891D01*
X153208938Y-112629595D01*
X153330405Y-112751063D01*
X153489110Y-112816800D01*
X154191650Y-112816800D01*
X154299600Y-112708850D01*
X154299600Y-111785400D01*
X154350400Y-111785400D01*
X154350400Y-112708850D01*
X154458350Y-112816800D01*
X155160890Y-112816800D01*
X155319595Y-112751063D01*
X155441062Y-112629595D01*
X155506800Y-112470891D01*
X155506800Y-111893350D01*
X155398850Y-111785400D01*
X154350400Y-111785400D01*
X154299600Y-111785400D01*
X153251150Y-111785400D01*
X153143200Y-111893350D01*
X145794800Y-111893350D01*
X145794800Y-111049109D01*
X153143200Y-111049109D01*
X153143200Y-111626650D01*
X153251150Y-111734600D01*
X154299600Y-111734600D01*
X154299600Y-110811150D01*
X154350400Y-110811150D01*
X154350400Y-111734600D01*
X155398850Y-111734600D01*
X155506800Y-111626650D01*
X155506800Y-111049109D01*
X155441062Y-110890405D01*
X155319595Y-110768937D01*
X155160890Y-110703200D01*
X154458350Y-110703200D01*
X154350400Y-110811150D01*
X154299600Y-110811150D01*
X154191650Y-110703200D01*
X153489110Y-110703200D01*
X153330405Y-110768937D01*
X153208938Y-110890405D01*
X153143200Y-111049109D01*
X145794800Y-111049109D01*
X145794800Y-108751370D01*
X146942810Y-108751370D01*
X147050760Y-108643420D01*
X147050760Y-107345480D01*
X147101560Y-107345480D01*
X147101560Y-108643420D01*
X147209510Y-108751370D01*
X148411730Y-108751370D01*
X148570435Y-108685633D01*
X148691902Y-108564165D01*
X148757640Y-108405461D01*
X148757640Y-107453430D01*
X150893780Y-107453430D01*
X150893780Y-108405461D01*
X150959518Y-108564165D01*
X151080985Y-108685633D01*
X151239690Y-108751370D01*
X152441910Y-108751370D01*
X152549860Y-108643420D01*
X152549860Y-107345480D01*
X152600660Y-107345480D01*
X152600660Y-108643420D01*
X152708610Y-108751370D01*
X153910830Y-108751370D01*
X154069535Y-108685633D01*
X154191002Y-108564165D01*
X154256740Y-108405461D01*
X154256740Y-107468421D01*
X155435166Y-107468421D01*
X155552859Y-107753259D01*
X155625800Y-107826328D01*
X155625800Y-109220000D01*
X155670270Y-109443564D01*
X155733036Y-109537500D01*
X155796908Y-109633092D01*
X156260800Y-110096984D01*
X156260800Y-110694741D01*
X156075000Y-110694741D01*
X155914985Y-110724850D01*
X155768020Y-110819419D01*
X155669427Y-110963715D01*
X155634741Y-111135000D01*
X155634741Y-112385000D01*
X155664850Y-112545015D01*
X155759419Y-112691980D01*
X155903715Y-112790573D01*
X156075000Y-112825259D01*
X157575000Y-112825259D01*
X157735015Y-112795150D01*
X157881980Y-112700581D01*
X157980573Y-112556285D01*
X158015259Y-112385000D01*
X158015259Y-111135000D01*
X157985150Y-110974985D01*
X157890581Y-110828020D01*
X157746285Y-110729427D01*
X157575000Y-110694741D01*
X157429200Y-110694741D01*
X157429200Y-109855005D01*
X157429201Y-109855000D01*
X157384731Y-109631437D01*
X157258092Y-109441908D01*
X156794200Y-108978016D01*
X156794200Y-107826455D01*
X156866376Y-107754405D01*
X156984565Y-107469773D01*
X156984583Y-107448350D01*
X157588200Y-107448350D01*
X157588200Y-108025891D01*
X157653938Y-108184595D01*
X157775405Y-108306063D01*
X157934110Y-108371800D01*
X158636650Y-108371800D01*
X158744600Y-108263850D01*
X158744600Y-107340400D01*
X158795400Y-107340400D01*
X158795400Y-108263850D01*
X158903350Y-108371800D01*
X159605890Y-108371800D01*
X159764595Y-108306063D01*
X159886062Y-108184595D01*
X159951800Y-108025891D01*
X159951800Y-107448350D01*
X159843850Y-107340400D01*
X158795400Y-107340400D01*
X158744600Y-107340400D01*
X157696150Y-107340400D01*
X157588200Y-107448350D01*
X156984583Y-107448350D01*
X156984834Y-107161579D01*
X156867141Y-106876741D01*
X156649405Y-106658624D01*
X156518118Y-106604109D01*
X157588200Y-106604109D01*
X157588200Y-107181650D01*
X157696150Y-107289600D01*
X158744600Y-107289600D01*
X158744600Y-106366150D01*
X158795400Y-106366150D01*
X158795400Y-107289600D01*
X159843850Y-107289600D01*
X159951800Y-107181650D01*
X159951800Y-106604109D01*
X159886062Y-106445405D01*
X159764595Y-106323937D01*
X159605890Y-106258200D01*
X158903350Y-106258200D01*
X158795400Y-106366150D01*
X158744600Y-106366150D01*
X158636650Y-106258200D01*
X157934110Y-106258200D01*
X157775405Y-106323937D01*
X157653938Y-106445405D01*
X157588200Y-106604109D01*
X156518118Y-106604109D01*
X156364773Y-106540435D01*
X156056579Y-106540166D01*
X155771741Y-106657859D01*
X155553624Y-106875595D01*
X155435435Y-107160227D01*
X155435166Y-107468421D01*
X154256740Y-107468421D01*
X154256740Y-107453430D01*
X154148790Y-107345480D01*
X152600660Y-107345480D01*
X152549860Y-107345480D01*
X151001730Y-107345480D01*
X150893780Y-107453430D01*
X148757640Y-107453430D01*
X148649690Y-107345480D01*
X147101560Y-107345480D01*
X147050760Y-107345480D01*
X147030760Y-107345480D01*
X147030760Y-107294680D01*
X147050760Y-107294680D01*
X147050760Y-105996740D01*
X147101560Y-105996740D01*
X147101560Y-107294680D01*
X148649690Y-107294680D01*
X148757640Y-107186730D01*
X148757640Y-106234699D01*
X150893780Y-106234699D01*
X150893780Y-107186730D01*
X151001730Y-107294680D01*
X152549860Y-107294680D01*
X152549860Y-105996740D01*
X152600660Y-105996740D01*
X152600660Y-107294680D01*
X154148790Y-107294680D01*
X154256740Y-107186730D01*
X154256740Y-106234699D01*
X154191002Y-106075995D01*
X154069535Y-105954527D01*
X153910830Y-105888790D01*
X152708610Y-105888790D01*
X152600660Y-105996740D01*
X152549860Y-105996740D01*
X152441910Y-105888790D01*
X151239690Y-105888790D01*
X151080985Y-105954527D01*
X150959518Y-106075995D01*
X150893780Y-106234699D01*
X148757640Y-106234699D01*
X148691902Y-106075995D01*
X148570435Y-105954527D01*
X148411730Y-105888790D01*
X147209510Y-105888790D01*
X147101560Y-105996740D01*
X147050760Y-105996740D01*
X146942810Y-105888790D01*
X145794800Y-105888790D01*
X145794800Y-105244188D01*
X149194368Y-105244188D01*
X149328267Y-105568249D01*
X149575987Y-105816402D01*
X149899814Y-105950866D01*
X150250448Y-105951172D01*
X150574509Y-105817273D01*
X150822662Y-105569553D01*
X150957126Y-105245726D01*
X150957432Y-104895092D01*
X150836970Y-104603550D01*
X151091900Y-104603550D01*
X151091900Y-104806281D01*
X151157638Y-104964985D01*
X151279105Y-105086453D01*
X151437810Y-105152190D01*
X152540970Y-105152190D01*
X152648920Y-105044240D01*
X152648920Y-104495600D01*
X152699720Y-104495600D01*
X152699720Y-105044240D01*
X152807670Y-105152190D01*
X153910830Y-105152190D01*
X154069535Y-105086453D01*
X154191002Y-104964985D01*
X154256740Y-104806281D01*
X154256740Y-104603550D01*
X154148790Y-104495600D01*
X152699720Y-104495600D01*
X152648920Y-104495600D01*
X151199850Y-104495600D01*
X151091900Y-104603550D01*
X150836970Y-104603550D01*
X150823533Y-104571031D01*
X150575813Y-104322878D01*
X150251986Y-104188414D01*
X149901352Y-104188108D01*
X149577291Y-104322007D01*
X149329138Y-104569727D01*
X149194674Y-104893554D01*
X149194368Y-105244188D01*
X145794800Y-105244188D01*
X145794800Y-100844908D01*
X149194368Y-100844908D01*
X149328267Y-101168969D01*
X149575987Y-101417122D01*
X149899814Y-101551586D01*
X150250448Y-101551892D01*
X150574509Y-101417993D01*
X150822662Y-101170273D01*
X150957126Y-100846446D01*
X150957432Y-100495812D01*
X150823533Y-100171751D01*
X150575813Y-99923598D01*
X150251986Y-99789134D01*
X149901352Y-99788828D01*
X149577291Y-99922727D01*
X149329138Y-100170447D01*
X149194674Y-100494274D01*
X149194368Y-100844908D01*
X145794800Y-100844908D01*
X145794800Y-99851210D01*
X146942810Y-99851210D01*
X147050760Y-99743260D01*
X147050760Y-98445320D01*
X147101560Y-98445320D01*
X147101560Y-99743260D01*
X147209510Y-99851210D01*
X148411730Y-99851210D01*
X148570435Y-99785473D01*
X148691902Y-99664005D01*
X148757640Y-99505301D01*
X148757640Y-98553270D01*
X150893780Y-98553270D01*
X150893780Y-99505301D01*
X150959518Y-99664005D01*
X151080985Y-99785473D01*
X151239690Y-99851210D01*
X152441910Y-99851210D01*
X152549860Y-99743260D01*
X152549860Y-98445320D01*
X152600660Y-98445320D01*
X152600660Y-99743260D01*
X152708610Y-99851210D01*
X153910830Y-99851210D01*
X154069535Y-99785473D01*
X154191002Y-99664005D01*
X154256740Y-99505301D01*
X154256740Y-98553270D01*
X154148790Y-98445320D01*
X152600660Y-98445320D01*
X152549860Y-98445320D01*
X151001730Y-98445320D01*
X150893780Y-98553270D01*
X148757640Y-98553270D01*
X148649690Y-98445320D01*
X147101560Y-98445320D01*
X147050760Y-98445320D01*
X147030760Y-98445320D01*
X147030760Y-98394520D01*
X147050760Y-98394520D01*
X147050760Y-97096580D01*
X147101560Y-97096580D01*
X147101560Y-98394520D01*
X148649690Y-98394520D01*
X148757640Y-98286570D01*
X148757640Y-97334539D01*
X150893780Y-97334539D01*
X150893780Y-98286570D01*
X151001730Y-98394520D01*
X152549860Y-98394520D01*
X152549860Y-97096580D01*
X152600660Y-97096580D01*
X152600660Y-98394520D01*
X154148790Y-98394520D01*
X154256740Y-98286570D01*
X154256740Y-97334539D01*
X154191002Y-97175835D01*
X154069535Y-97054367D01*
X153910830Y-96988630D01*
X152708610Y-96988630D01*
X152600660Y-97096580D01*
X152549860Y-97096580D01*
X152441910Y-96988630D01*
X151239690Y-96988630D01*
X151080985Y-97054367D01*
X150959518Y-97175835D01*
X150893780Y-97334539D01*
X148757640Y-97334539D01*
X148691902Y-97175835D01*
X148570435Y-97054367D01*
X148411730Y-96988630D01*
X147209510Y-96988630D01*
X147101560Y-97096580D01*
X147050760Y-97096580D01*
X146942810Y-96988630D01*
X145794800Y-96988630D01*
X145794800Y-92454800D01*
X152240429Y-92454800D01*
X152169427Y-92558715D01*
X152169427Y-92558715D01*
G37*
X152169427Y-92558715D02*
X152134741Y-92730000D01*
X152134741Y-95230000D01*
X152164850Y-95390015D01*
X152259419Y-95536980D01*
X152403715Y-95635573D01*
X152575000Y-95670259D01*
X153899075Y-95670259D01*
X154355800Y-96126984D01*
X154355800Y-100696549D01*
X154114685Y-100694977D01*
X153996225Y-100614037D01*
X153824940Y-100579351D01*
X151523700Y-100579351D01*
X151363685Y-100609460D01*
X151216720Y-100704029D01*
X151118127Y-100848325D01*
X151083441Y-101019610D01*
X151083441Y-101519990D01*
X151112674Y-101675351D01*
X151083441Y-101819710D01*
X151083441Y-102320090D01*
X151112674Y-102475451D01*
X151083441Y-102619810D01*
X151083441Y-103120190D01*
X151112674Y-103275551D01*
X151083441Y-103419910D01*
X151083441Y-103920290D01*
X151113550Y-104080305D01*
X151113940Y-104080911D01*
X151091900Y-104134119D01*
X151091900Y-104336850D01*
X151199850Y-104444800D01*
X152648920Y-104444800D01*
X152648920Y-104424800D01*
X152699720Y-104424800D01*
X152699720Y-104444800D01*
X154148790Y-104444800D01*
X154256740Y-104336850D01*
X154256740Y-104134119D01*
X154233338Y-104077623D01*
X154265199Y-103920290D01*
X154265199Y-103656383D01*
X155161908Y-104553092D01*
X155351436Y-104679730D01*
X155575000Y-104724200D01*
X157667045Y-104724200D01*
X157739095Y-104796376D01*
X158023727Y-104914565D01*
X158331921Y-104914834D01*
X158616759Y-104797141D01*
X158689828Y-104724200D01*
X160654741Y-104724200D01*
X160654741Y-104790000D01*
X160684850Y-104950015D01*
X160779419Y-105096980D01*
X160923715Y-105195573D01*
X161095000Y-105230259D01*
X161260800Y-105230259D01*
X161260800Y-105248016D01*
X160856908Y-105651908D01*
X160730270Y-105841436D01*
X160685800Y-106065000D01*
X160685800Y-106249741D01*
X160520000Y-106249741D01*
X160359985Y-106279850D01*
X160213020Y-106374419D01*
X160114427Y-106518715D01*
X160079741Y-106690000D01*
X160079741Y-107940000D01*
X160109850Y-108100015D01*
X160204419Y-108246980D01*
X160348715Y-108345573D01*
X160520000Y-108380259D01*
X162020000Y-108380259D01*
X162180015Y-108350150D01*
X162326980Y-108255581D01*
X162425573Y-108111285D01*
X162460259Y-107940000D01*
X162460259Y-106690000D01*
X162430150Y-106529985D01*
X162335581Y-106383020D01*
X162191285Y-106284427D01*
X162020000Y-106249741D01*
X161911443Y-106249741D01*
X162258092Y-105903092D01*
X162384731Y-105713563D01*
X162429200Y-105490000D01*
X162429200Y-105230259D01*
X162595000Y-105230259D01*
X162755015Y-105200150D01*
X162901980Y-105105581D01*
X163000573Y-104961285D01*
X163035259Y-104790000D01*
X163035259Y-103490000D01*
X163005150Y-103329985D01*
X162910581Y-103183020D01*
X162766285Y-103084427D01*
X162595000Y-103049741D01*
X161095000Y-103049741D01*
X160934985Y-103079850D01*
X160788020Y-103174419D01*
X160689427Y-103318715D01*
X160654741Y-103490000D01*
X160654741Y-103555800D01*
X158689955Y-103555800D01*
X158617905Y-103483624D01*
X158333273Y-103365435D01*
X158025079Y-103365166D01*
X157740241Y-103482859D01*
X157667172Y-103555800D01*
X155816984Y-103555800D01*
X155397884Y-103136700D01*
X157667045Y-103136700D01*
X157739095Y-103208876D01*
X158023727Y-103327065D01*
X158331921Y-103327334D01*
X158616759Y-103209641D01*
X158834876Y-102991905D01*
X158953065Y-102707273D01*
X158953155Y-102604029D01*
X159372983Y-102184200D01*
X160654741Y-102184200D01*
X160654741Y-102250000D01*
X160684850Y-102410015D01*
X160779419Y-102556980D01*
X160923715Y-102655573D01*
X161095000Y-102690259D01*
X162595000Y-102690259D01*
X162755015Y-102660150D01*
X162901980Y-102565581D01*
X163000573Y-102421285D01*
X163035259Y-102250000D01*
X163035259Y-100950000D01*
X163005150Y-100789985D01*
X162910581Y-100643020D01*
X162766285Y-100544427D01*
X162595000Y-100509741D01*
X162429200Y-100509741D01*
X162429200Y-100250000D01*
X162384731Y-100026437D01*
X162258092Y-99836908D01*
X161911443Y-99490259D01*
X162020000Y-99490259D01*
X162180015Y-99460150D01*
X162326980Y-99365581D01*
X162425573Y-99221285D01*
X162460259Y-99050000D01*
X162460259Y-97800000D01*
X162430150Y-97639985D01*
X162335581Y-97493020D01*
X162191285Y-97394427D01*
X162020000Y-97359741D01*
X160520000Y-97359741D01*
X160359985Y-97389850D01*
X160213020Y-97484419D01*
X160114427Y-97628715D01*
X160079741Y-97800000D01*
X160079741Y-99050000D01*
X160109850Y-99210015D01*
X160204419Y-99356980D01*
X160348715Y-99455573D01*
X160520000Y-99490259D01*
X160685800Y-99490259D01*
X160685800Y-99675000D01*
X160730270Y-99898564D01*
X160798047Y-100000000D01*
X160856908Y-100088092D01*
X161260800Y-100491984D01*
X161260800Y-100509741D01*
X161095000Y-100509741D01*
X160934985Y-100539850D01*
X160788020Y-100634419D01*
X160689427Y-100778715D01*
X160654741Y-100950000D01*
X160654741Y-101015800D01*
X159131000Y-101015800D01*
X158907436Y-101060270D01*
X158717908Y-101186908D01*
X158717906Y-101186911D01*
X158127061Y-101777755D01*
X158025079Y-101777666D01*
X157740241Y-101895359D01*
X157667172Y-101968300D01*
X156260901Y-101968300D01*
X156349565Y-101754773D01*
X156349834Y-101446579D01*
X156232141Y-101161741D01*
X156014405Y-100943624D01*
X155729773Y-100825435D01*
X155626529Y-100825345D01*
X155524200Y-100723016D01*
X155524200Y-98558350D01*
X157588200Y-98558350D01*
X157588200Y-99135891D01*
X157653938Y-99294595D01*
X157775405Y-99416063D01*
X157934110Y-99481800D01*
X158636650Y-99481800D01*
X158744600Y-99373850D01*
X158744600Y-98450400D01*
X158795400Y-98450400D01*
X158795400Y-99373850D01*
X158903350Y-99481800D01*
X159605890Y-99481800D01*
X159764595Y-99416063D01*
X159886062Y-99294595D01*
X159951800Y-99135891D01*
X159951800Y-98558350D01*
X159843850Y-98450400D01*
X158795400Y-98450400D01*
X158744600Y-98450400D01*
X157696150Y-98450400D01*
X157588200Y-98558350D01*
X155524200Y-98558350D01*
X155524200Y-97714109D01*
X157588200Y-97714109D01*
X157588200Y-98291650D01*
X157696150Y-98399600D01*
X158744600Y-98399600D01*
X158744600Y-97476150D01*
X158795400Y-97476150D01*
X158795400Y-98399600D01*
X159843850Y-98399600D01*
X159951800Y-98291650D01*
X159951800Y-97714109D01*
X159886062Y-97555405D01*
X159764595Y-97433937D01*
X159605890Y-97368200D01*
X158903350Y-97368200D01*
X158795400Y-97476150D01*
X158744600Y-97476150D01*
X158636650Y-97368200D01*
X157934110Y-97368200D01*
X157775405Y-97433937D01*
X157653938Y-97555405D01*
X157588200Y-97714109D01*
X155524200Y-97714109D01*
X155524200Y-95885000D01*
X155479730Y-95661436D01*
X155353092Y-95471908D01*
X155015259Y-95134075D01*
X155015259Y-94113350D01*
X156143200Y-94113350D01*
X156143200Y-95315891D01*
X156208938Y-95474595D01*
X156330405Y-95596063D01*
X156489110Y-95661800D01*
X157441650Y-95661800D01*
X157549600Y-95553850D01*
X157549600Y-94005400D01*
X157600400Y-94005400D01*
X157600400Y-95553850D01*
X157708350Y-95661800D01*
X158660890Y-95661800D01*
X158819595Y-95596063D01*
X158941062Y-95474595D01*
X159006800Y-95315891D01*
X159006800Y-94113350D01*
X158898850Y-94005400D01*
X157600400Y-94005400D01*
X157549600Y-94005400D01*
X156251150Y-94005400D01*
X156143200Y-94113350D01*
X155015259Y-94113350D01*
X155015259Y-92730000D01*
X154985150Y-92569985D01*
X154911031Y-92454800D01*
X156239543Y-92454800D01*
X156208938Y-92485405D01*
X156143200Y-92644109D01*
X156143200Y-93846650D01*
X156251150Y-93954600D01*
X157549600Y-93954600D01*
X157549600Y-93934600D01*
X157600400Y-93934600D01*
X157600400Y-93954600D01*
X158898850Y-93954600D01*
X159006800Y-93846650D01*
X159006800Y-92644109D01*
X158941062Y-92485405D01*
X158910457Y-92454800D01*
X181865200Y-92454800D01*
X181865200Y-113285200D01*
X166623484Y-113285200D01*
X166783092Y-113125592D01*
X166889046Y-112967021D01*
X167144272Y-113137558D01*
X167640000Y-113236164D01*
X168135728Y-113137558D01*
X168555986Y-112856750D01*
X168836794Y-112436492D01*
X168910000Y-112068459D01*
X168983206Y-112436492D01*
X169264014Y-112856750D01*
X169684272Y-113137558D01*
X170180000Y-113236164D01*
X170675728Y-113137558D01*
X171095986Y-112856750D01*
X171376794Y-112436492D01*
X171450000Y-112068459D01*
X171523206Y-112436492D01*
X171804014Y-112856750D01*
X172224272Y-113137558D01*
X172720000Y-113236164D01*
X173215728Y-113137558D01*
X173635986Y-112856750D01*
X173916794Y-112436492D01*
X173991552Y-112060657D01*
X174072927Y-112431595D01*
X174361975Y-112846347D01*
X174787739Y-113118914D01*
X175032306Y-113187632D01*
X175234600Y-113099578D01*
X175234600Y-111785400D01*
X175214600Y-111785400D01*
X175214600Y-111734600D01*
X175234600Y-111734600D01*
X175234600Y-110420422D01*
X175032306Y-110332368D01*
X174787739Y-110401086D01*
X174361975Y-110673653D01*
X174072927Y-111088405D01*
X173991552Y-111459343D01*
X173916794Y-111083508D01*
X173635986Y-110663250D01*
X173215728Y-110382442D01*
X172720000Y-110283836D01*
X172224272Y-110382442D01*
X171804014Y-110663250D01*
X171523206Y-111083508D01*
X171450000Y-111451541D01*
X171376794Y-111083508D01*
X171270402Y-110924282D01*
X173641092Y-108553592D01*
X173767730Y-108364064D01*
X173812200Y-108140500D01*
X173812200Y-107127095D01*
X173863000Y-107137200D01*
X173986545Y-107137200D01*
X174058595Y-107209376D01*
X174343227Y-107327565D01*
X174651421Y-107327834D01*
X174936259Y-107210141D01*
X175154376Y-106992405D01*
X175272565Y-106707773D01*
X175272834Y-106399579D01*
X175155141Y-106114741D01*
X174937405Y-105896624D01*
X174652773Y-105778435D01*
X174379459Y-105778196D01*
X174379459Y-104902000D01*
X174349350Y-104741985D01*
X174337906Y-104724200D01*
X175399016Y-104724200D01*
X175437800Y-104762984D01*
X175437800Y-105410000D01*
X175482270Y-105633564D01*
X175604438Y-105816402D01*
X175608908Y-105823092D01*
X176498908Y-106713092D01*
X176559741Y-106753739D01*
X176559741Y-106950000D01*
X176589850Y-107110015D01*
X176684419Y-107256980D01*
X176828715Y-107355573D01*
X177000000Y-107390259D01*
X178500000Y-107390259D01*
X178660015Y-107360150D01*
X178806980Y-107265581D01*
X178905573Y-107121285D01*
X178940259Y-106950000D01*
X178940259Y-106266443D01*
X179259741Y-106585924D01*
X179259741Y-106950000D01*
X179289850Y-107110015D01*
X179384419Y-107256980D01*
X179495761Y-107333056D01*
X177386908Y-109441908D01*
X177260270Y-109631436D01*
X177215800Y-109855000D01*
X177215800Y-110441557D01*
X176884014Y-110663250D01*
X176603206Y-111083508D01*
X176528448Y-111459343D01*
X176447073Y-111088405D01*
X176158025Y-110673653D01*
X175732261Y-110401086D01*
X175487694Y-110332368D01*
X175285400Y-110420422D01*
X175285400Y-111734600D01*
X175305400Y-111734600D01*
X175305400Y-111785400D01*
X175285400Y-111785400D01*
X175285400Y-113099578D01*
X175487694Y-113187632D01*
X175732261Y-113118914D01*
X176158025Y-112846347D01*
X176447073Y-112431595D01*
X176528448Y-112060657D01*
X176603206Y-112436492D01*
X176884014Y-112856750D01*
X177304272Y-113137558D01*
X177800000Y-113236164D01*
X178295728Y-113137558D01*
X178715986Y-112856750D01*
X178996794Y-112436492D01*
X179070000Y-112068459D01*
X179143206Y-112436492D01*
X179424014Y-112856750D01*
X179844272Y-113137558D01*
X180340000Y-113236164D01*
X180835728Y-113137558D01*
X181255986Y-112856750D01*
X181536794Y-112436492D01*
X181635400Y-111940764D01*
X181635400Y-111579236D01*
X181536794Y-111083508D01*
X181255986Y-110663250D01*
X180835728Y-110382442D01*
X180340000Y-110283836D01*
X179844272Y-110382442D01*
X179424014Y-110663250D01*
X179143206Y-111083508D01*
X179070000Y-111451541D01*
X178996794Y-111083508D01*
X178715986Y-110663250D01*
X178384200Y-110441557D01*
X178384200Y-110096984D01*
X180753089Y-107728094D01*
X180753092Y-107728092D01*
X180863089Y-107618094D01*
X180863092Y-107618092D01*
X180989730Y-107428564D01*
X180997349Y-107390259D01*
X181200000Y-107390259D01*
X181360015Y-107360150D01*
X181506980Y-107265581D01*
X181605573Y-107121285D01*
X181640259Y-106950000D01*
X181640259Y-105650000D01*
X181610150Y-105489985D01*
X181515581Y-105343020D01*
X181371285Y-105244427D01*
X181200000Y-105209741D01*
X179700000Y-105209741D01*
X179561909Y-105235725D01*
X178913092Y-104586908D01*
X178887379Y-104569727D01*
X178723564Y-104460270D01*
X178500000Y-104415800D01*
X177504984Y-104415800D01*
X177197092Y-104107908D01*
X177197089Y-104107906D01*
X177176092Y-104086908D01*
X175927092Y-102837908D01*
X175899093Y-102819200D01*
X175737564Y-102711270D01*
X175514000Y-102666800D01*
X172479384Y-102666800D01*
X172961984Y-102184200D01*
X174950000Y-102184200D01*
X175173564Y-102139730D01*
X175363092Y-102013092D01*
X176879344Y-100496840D01*
X176928715Y-100530573D01*
X177100000Y-100565259D01*
X178600000Y-100565259D01*
X178760015Y-100535150D01*
X178906980Y-100440581D01*
X179005573Y-100296285D01*
X179040259Y-100125000D01*
X179040259Y-99633350D01*
X179168200Y-99633350D01*
X179168200Y-100210891D01*
X179233938Y-100369595D01*
X179355405Y-100491063D01*
X179514110Y-100556800D01*
X180216650Y-100556800D01*
X180324600Y-100448850D01*
X180324600Y-99525400D01*
X180375400Y-99525400D01*
X180375400Y-100448850D01*
X180483350Y-100556800D01*
X181185890Y-100556800D01*
X181344595Y-100491063D01*
X181466062Y-100369595D01*
X181531800Y-100210891D01*
X181531800Y-99633350D01*
X181423850Y-99525400D01*
X180375400Y-99525400D01*
X180324600Y-99525400D01*
X179276150Y-99525400D01*
X179168200Y-99633350D01*
X179040259Y-99633350D01*
X179040259Y-98875000D01*
X179024098Y-98789109D01*
X179168200Y-98789109D01*
X179168200Y-99366650D01*
X179276150Y-99474600D01*
X180324600Y-99474600D01*
X180324600Y-98551150D01*
X180375400Y-98551150D01*
X180375400Y-99474600D01*
X181423850Y-99474600D01*
X181531800Y-99366650D01*
X181531800Y-98789109D01*
X181466062Y-98630405D01*
X181344595Y-98508937D01*
X181185890Y-98443200D01*
X180483350Y-98443200D01*
X180375400Y-98551150D01*
X180324600Y-98551150D01*
X180216650Y-98443200D01*
X179514110Y-98443200D01*
X179355405Y-98508937D01*
X179233938Y-98630405D01*
X179168200Y-98789109D01*
X179024098Y-98789109D01*
X179010150Y-98714985D01*
X178915581Y-98568020D01*
X178771285Y-98469427D01*
X178600000Y-98434741D01*
X177100000Y-98434741D01*
X176939985Y-98464850D01*
X176793020Y-98559419D01*
X176694427Y-98703715D01*
X176659741Y-98875000D01*
X176659741Y-99071652D01*
X176636908Y-99086908D01*
X174708016Y-101015800D01*
X174340322Y-101015800D01*
X174344773Y-101009285D01*
X174379459Y-100838000D01*
X174379459Y-100385725D01*
X174403092Y-100362092D01*
X174420292Y-100336350D01*
X174529730Y-100172564D01*
X174574200Y-99949000D01*
X174574200Y-98618955D01*
X174646376Y-98546905D01*
X174764565Y-98262273D01*
X174764834Y-97954079D01*
X174676048Y-97739200D01*
X178752500Y-97739200D01*
X178833154Y-97723157D01*
X178915093Y-97716118D01*
X178944062Y-97701096D01*
X178976064Y-97694730D01*
X179044439Y-97649044D01*
X179117447Y-97611184D01*
X180704947Y-96341184D01*
X180725961Y-96316220D01*
X180753092Y-96298092D01*
X180798781Y-96229713D01*
X180851741Y-96166799D01*
X180861602Y-96135694D01*
X180879730Y-96108564D01*
X180895773Y-96027909D01*
X180920627Y-95949514D01*
X180917834Y-95917003D01*
X180924200Y-95885000D01*
X180924200Y-95298443D01*
X181255986Y-95076750D01*
X181536794Y-94656492D01*
X181635400Y-94160764D01*
X181635400Y-93799236D01*
X181536794Y-93303508D01*
X181255986Y-92883250D01*
X180835728Y-92602442D01*
X180340000Y-92503836D01*
X179844272Y-92602442D01*
X179424014Y-92883250D01*
X179143206Y-93303508D01*
X179070000Y-93671541D01*
X178996794Y-93303508D01*
X178715986Y-92883250D01*
X178295728Y-92602442D01*
X177800000Y-92503836D01*
X177304272Y-92602442D01*
X176884014Y-92883250D01*
X176603206Y-93303508D01*
X176530000Y-93671541D01*
X176456794Y-93303508D01*
X176175986Y-92883250D01*
X175755728Y-92602442D01*
X175260000Y-92503836D01*
X174764272Y-92602442D01*
X174344014Y-92883250D01*
X174063206Y-93303508D01*
X173990000Y-93671541D01*
X173916794Y-93303508D01*
X173635986Y-92883250D01*
X173215728Y-92602442D01*
X172720000Y-92503836D01*
X172224272Y-92602442D01*
X171804014Y-92883250D01*
X171523206Y-93303508D01*
X171450000Y-93671541D01*
X171376794Y-93303508D01*
X171095986Y-92883250D01*
X170675728Y-92602442D01*
X170180000Y-92503836D01*
X169684272Y-92602442D01*
X169264014Y-92883250D01*
X168983206Y-93303508D01*
X168910000Y-93671541D01*
X168836794Y-93303508D01*
X168555986Y-92883250D01*
X168135728Y-92602442D01*
X167640000Y-92503836D01*
X167144272Y-92602442D01*
X166724014Y-92883250D01*
X166443206Y-93303508D01*
X166370000Y-93671541D01*
X166296794Y-93303508D01*
X166015986Y-92883250D01*
X165595728Y-92602442D01*
X165100000Y-92503836D01*
X164604272Y-92602442D01*
X164184014Y-92883250D01*
X163903206Y-93303508D01*
X163863859Y-93501320D01*
X163863859Y-92964000D01*
X163833750Y-92803985D01*
X163739181Y-92657020D01*
X163594885Y-92558427D01*
X163423600Y-92523741D01*
X161696400Y-92523741D01*
X161536385Y-92553850D01*
X161389420Y-92648419D01*
X161290827Y-92792715D01*
X161256141Y-92964000D01*
X161256141Y-94996000D01*
X161286250Y-95156015D01*
X161380819Y-95302980D01*
X161525115Y-95401573D01*
X161696400Y-95436259D01*
X163423600Y-95436259D01*
X163583615Y-95406150D01*
X163730580Y-95311581D01*
X163829173Y-95167285D01*
X163863859Y-94996000D01*
X163863859Y-94458680D01*
X163903206Y-94656492D01*
X164184014Y-95076750D01*
X164604272Y-95357558D01*
X165100000Y-95456164D01*
X165595728Y-95357558D01*
X166015986Y-95076750D01*
X166296794Y-94656492D01*
X166370000Y-94288459D01*
X166443206Y-94656492D01*
X166724014Y-95076750D01*
X167144272Y-95357558D01*
X167640000Y-95456164D01*
X168135728Y-95357558D01*
X168555986Y-95076750D01*
X168836794Y-94656492D01*
X168910000Y-94288459D01*
X168983206Y-94656492D01*
X169264014Y-95076750D01*
X169595800Y-95298443D01*
X169595800Y-95643017D01*
X168115908Y-97122908D01*
X167989270Y-97312436D01*
X167944800Y-97536000D01*
X167944800Y-99127741D01*
X167690800Y-99127741D01*
X167530785Y-99157850D01*
X167383820Y-99252419D01*
X167285227Y-99396715D01*
X167250541Y-99568000D01*
X167250541Y-100838000D01*
X167265328Y-100916585D01*
X167201741Y-100942859D01*
X166983624Y-101160595D01*
X166917067Y-101320883D01*
X166783092Y-101186908D01*
X166593564Y-101060270D01*
X166370000Y-101015800D01*
X165735259Y-101015800D01*
X165735259Y-100950000D01*
X165705150Y-100789985D01*
X165610581Y-100643020D01*
X165466285Y-100544427D01*
X165295000Y-100509741D01*
X163795000Y-100509741D01*
X163634985Y-100539850D01*
X163488020Y-100634419D01*
X163389427Y-100778715D01*
X163354741Y-100950000D01*
X163354741Y-102250000D01*
X163384850Y-102410015D01*
X163479419Y-102556980D01*
X163623715Y-102655573D01*
X163795000Y-102690259D01*
X165295000Y-102690259D01*
X165455015Y-102660150D01*
X165601980Y-102565581D01*
X165700573Y-102421285D01*
X165735259Y-102250000D01*
X165735259Y-102184200D01*
X166128016Y-102184200D01*
X167944800Y-104000984D01*
X167944800Y-104461741D01*
X167690800Y-104461741D01*
X167530785Y-104491850D01*
X167383820Y-104586419D01*
X167285227Y-104730715D01*
X167250541Y-104902000D01*
X167250541Y-104952800D01*
X166738984Y-104952800D01*
X165735259Y-103949075D01*
X165735259Y-103490000D01*
X165705150Y-103329985D01*
X165610581Y-103183020D01*
X165466285Y-103084427D01*
X165295000Y-103049741D01*
X163795000Y-103049741D01*
X163634985Y-103079850D01*
X163488020Y-103174419D01*
X163389427Y-103318715D01*
X163354741Y-103490000D01*
X163354741Y-104790000D01*
X163384850Y-104950015D01*
X163479419Y-105096980D01*
X163623715Y-105195573D01*
X163795000Y-105230259D01*
X165295000Y-105230259D01*
X165353136Y-105219320D01*
X166083908Y-105950092D01*
X166273436Y-106076730D01*
X166497000Y-106121200D01*
X167250541Y-106121200D01*
X167250541Y-106172000D01*
X167280650Y-106332015D01*
X167375219Y-106478980D01*
X167519515Y-106577573D01*
X167690800Y-106612259D01*
X168097200Y-106612259D01*
X168215696Y-106589962D01*
X168325800Y-106612259D01*
X168582101Y-106612259D01*
X168471741Y-106657859D01*
X168253624Y-106875595D01*
X168135435Y-107160227D01*
X168135166Y-107468421D01*
X168223952Y-107683300D01*
X167246983Y-107683300D01*
X166827245Y-107263561D01*
X166827334Y-107161579D01*
X166709641Y-106876741D01*
X166491905Y-106658624D01*
X166207273Y-106540435D01*
X165899079Y-106540166D01*
X165614241Y-106657859D01*
X165396124Y-106875595D01*
X165277935Y-107160227D01*
X165277666Y-107468421D01*
X165395359Y-107753259D01*
X165613095Y-107971376D01*
X165897727Y-108089565D01*
X166000971Y-108089655D01*
X166229617Y-108318300D01*
X165417500Y-108318300D01*
X165193937Y-108362769D01*
X165004408Y-108489408D01*
X164686908Y-108806908D01*
X164560270Y-108996436D01*
X164515800Y-109220000D01*
X164515800Y-110441557D01*
X164184014Y-110663250D01*
X163903206Y-111083508D01*
X163863859Y-111281320D01*
X163863859Y-110744000D01*
X163833750Y-110583985D01*
X163739181Y-110437020D01*
X163594885Y-110338427D01*
X163423600Y-110303741D01*
X161696400Y-110303741D01*
X161536385Y-110333850D01*
X161389420Y-110428419D01*
X161290827Y-110572715D01*
X161256141Y-110744000D01*
X161256141Y-112776000D01*
X161286250Y-112936015D01*
X161380819Y-113082980D01*
X161525115Y-113181573D01*
X161696400Y-113216259D01*
X163190075Y-113216259D01*
X163259016Y-113285200D01*
X145794800Y-113285200D01*
X145794800Y-111893350D01*
X153143200Y-111893350D01*
X153143200Y-112470891D01*
X153208938Y-112629595D01*
X153330405Y-112751063D01*
X153489110Y-112816800D01*
X154191650Y-112816800D01*
X154299600Y-112708850D01*
X154299600Y-111785400D01*
X154350400Y-111785400D01*
X154350400Y-112708850D01*
X154458350Y-112816800D01*
X155160890Y-112816800D01*
X155319595Y-112751063D01*
X155441062Y-112629595D01*
X155506800Y-112470891D01*
X155506800Y-111893350D01*
X155398850Y-111785400D01*
X154350400Y-111785400D01*
X154299600Y-111785400D01*
X153251150Y-111785400D01*
X153143200Y-111893350D01*
X145794800Y-111893350D01*
X145794800Y-111049109D01*
X153143200Y-111049109D01*
X153143200Y-111626650D01*
X153251150Y-111734600D01*
X154299600Y-111734600D01*
X154299600Y-110811150D01*
X154350400Y-110811150D01*
X154350400Y-111734600D01*
X155398850Y-111734600D01*
X155506800Y-111626650D01*
X155506800Y-111049109D01*
X155441062Y-110890405D01*
X155319595Y-110768937D01*
X155160890Y-110703200D01*
X154458350Y-110703200D01*
X154350400Y-110811150D01*
X154299600Y-110811150D01*
X154191650Y-110703200D01*
X153489110Y-110703200D01*
X153330405Y-110768937D01*
X153208938Y-110890405D01*
X153143200Y-111049109D01*
X145794800Y-111049109D01*
X145794800Y-108751370D01*
X146942810Y-108751370D01*
X147050760Y-108643420D01*
X147050760Y-107345480D01*
X147101560Y-107345480D01*
X147101560Y-108643420D01*
X147209510Y-108751370D01*
X148411730Y-108751370D01*
X148570435Y-108685633D01*
X148691902Y-108564165D01*
X148757640Y-108405461D01*
X148757640Y-107453430D01*
X150893780Y-107453430D01*
X150893780Y-108405461D01*
X150959518Y-108564165D01*
X151080985Y-108685633D01*
X151239690Y-108751370D01*
X152441910Y-108751370D01*
X152549860Y-108643420D01*
X152549860Y-107345480D01*
X152600660Y-107345480D01*
X152600660Y-108643420D01*
X152708610Y-108751370D01*
X153910830Y-108751370D01*
X154069535Y-108685633D01*
X154191002Y-108564165D01*
X154256740Y-108405461D01*
X154256740Y-107468421D01*
X155435166Y-107468421D01*
X155552859Y-107753259D01*
X155625800Y-107826328D01*
X155625800Y-109220000D01*
X155670270Y-109443564D01*
X155733036Y-109537500D01*
X155796908Y-109633092D01*
X156260800Y-110096984D01*
X156260800Y-110694741D01*
X156075000Y-110694741D01*
X155914985Y-110724850D01*
X155768020Y-110819419D01*
X155669427Y-110963715D01*
X155634741Y-111135000D01*
X155634741Y-112385000D01*
X155664850Y-112545015D01*
X155759419Y-112691980D01*
X155903715Y-112790573D01*
X156075000Y-112825259D01*
X157575000Y-112825259D01*
X157735015Y-112795150D01*
X157881980Y-112700581D01*
X157980573Y-112556285D01*
X158015259Y-112385000D01*
X158015259Y-111135000D01*
X157985150Y-110974985D01*
X157890581Y-110828020D01*
X157746285Y-110729427D01*
X157575000Y-110694741D01*
X157429200Y-110694741D01*
X157429200Y-109855005D01*
X157429201Y-109855000D01*
X157384731Y-109631437D01*
X157258092Y-109441908D01*
X156794200Y-108978016D01*
X156794200Y-107826455D01*
X156866376Y-107754405D01*
X156984565Y-107469773D01*
X156984583Y-107448350D01*
X157588200Y-107448350D01*
X157588200Y-108025891D01*
X157653938Y-108184595D01*
X157775405Y-108306063D01*
X157934110Y-108371800D01*
X158636650Y-108371800D01*
X158744600Y-108263850D01*
X158744600Y-107340400D01*
X158795400Y-107340400D01*
X158795400Y-108263850D01*
X158903350Y-108371800D01*
X159605890Y-108371800D01*
X159764595Y-108306063D01*
X159886062Y-108184595D01*
X159951800Y-108025891D01*
X159951800Y-107448350D01*
X159843850Y-107340400D01*
X158795400Y-107340400D01*
X158744600Y-107340400D01*
X157696150Y-107340400D01*
X157588200Y-107448350D01*
X156984583Y-107448350D01*
X156984834Y-107161579D01*
X156867141Y-106876741D01*
X156649405Y-106658624D01*
X156518118Y-106604109D01*
X157588200Y-106604109D01*
X157588200Y-107181650D01*
X157696150Y-107289600D01*
X158744600Y-107289600D01*
X158744600Y-106366150D01*
X158795400Y-106366150D01*
X158795400Y-107289600D01*
X159843850Y-107289600D01*
X159951800Y-107181650D01*
X159951800Y-106604109D01*
X159886062Y-106445405D01*
X159764595Y-106323937D01*
X159605890Y-106258200D01*
X158903350Y-106258200D01*
X158795400Y-106366150D01*
X158744600Y-106366150D01*
X158636650Y-106258200D01*
X157934110Y-106258200D01*
X157775405Y-106323937D01*
X157653938Y-106445405D01*
X157588200Y-106604109D01*
X156518118Y-106604109D01*
X156364773Y-106540435D01*
X156056579Y-106540166D01*
X155771741Y-106657859D01*
X155553624Y-106875595D01*
X155435435Y-107160227D01*
X155435166Y-107468421D01*
X154256740Y-107468421D01*
X154256740Y-107453430D01*
X154148790Y-107345480D01*
X152600660Y-107345480D01*
X152549860Y-107345480D01*
X151001730Y-107345480D01*
X150893780Y-107453430D01*
X148757640Y-107453430D01*
X148649690Y-107345480D01*
X147101560Y-107345480D01*
X147050760Y-107345480D01*
X147030760Y-107345480D01*
X147030760Y-107294680D01*
X147050760Y-107294680D01*
X147050760Y-105996740D01*
X147101560Y-105996740D01*
X147101560Y-107294680D01*
X148649690Y-107294680D01*
X148757640Y-107186730D01*
X148757640Y-106234699D01*
X150893780Y-106234699D01*
X150893780Y-107186730D01*
X151001730Y-107294680D01*
X152549860Y-107294680D01*
X152549860Y-105996740D01*
X152600660Y-105996740D01*
X152600660Y-107294680D01*
X154148790Y-107294680D01*
X154256740Y-107186730D01*
X154256740Y-106234699D01*
X154191002Y-106075995D01*
X154069535Y-105954527D01*
X153910830Y-105888790D01*
X152708610Y-105888790D01*
X152600660Y-105996740D01*
X152549860Y-105996740D01*
X152441910Y-105888790D01*
X151239690Y-105888790D01*
X151080985Y-105954527D01*
X150959518Y-106075995D01*
X150893780Y-106234699D01*
X148757640Y-106234699D01*
X148691902Y-106075995D01*
X148570435Y-105954527D01*
X148411730Y-105888790D01*
X147209510Y-105888790D01*
X147101560Y-105996740D01*
X147050760Y-105996740D01*
X146942810Y-105888790D01*
X145794800Y-105888790D01*
X145794800Y-105244188D01*
X149194368Y-105244188D01*
X149328267Y-105568249D01*
X149575987Y-105816402D01*
X149899814Y-105950866D01*
X150250448Y-105951172D01*
X150574509Y-105817273D01*
X150822662Y-105569553D01*
X150957126Y-105245726D01*
X150957432Y-104895092D01*
X150836970Y-104603550D01*
X151091900Y-104603550D01*
X151091900Y-104806281D01*
X151157638Y-104964985D01*
X151279105Y-105086453D01*
X151437810Y-105152190D01*
X152540970Y-105152190D01*
X152648920Y-105044240D01*
X152648920Y-104495600D01*
X152699720Y-104495600D01*
X152699720Y-105044240D01*
X152807670Y-105152190D01*
X153910830Y-105152190D01*
X154069535Y-105086453D01*
X154191002Y-104964985D01*
X154256740Y-104806281D01*
X154256740Y-104603550D01*
X154148790Y-104495600D01*
X152699720Y-104495600D01*
X152648920Y-104495600D01*
X151199850Y-104495600D01*
X151091900Y-104603550D01*
X150836970Y-104603550D01*
X150823533Y-104571031D01*
X150575813Y-104322878D01*
X150251986Y-104188414D01*
X149901352Y-104188108D01*
X149577291Y-104322007D01*
X149329138Y-104569727D01*
X149194674Y-104893554D01*
X149194368Y-105244188D01*
X145794800Y-105244188D01*
X145794800Y-100844908D01*
X149194368Y-100844908D01*
X149328267Y-101168969D01*
X149575987Y-101417122D01*
X149899814Y-101551586D01*
X150250448Y-101551892D01*
X150574509Y-101417993D01*
X150822662Y-101170273D01*
X150957126Y-100846446D01*
X150957432Y-100495812D01*
X150823533Y-100171751D01*
X150575813Y-99923598D01*
X150251986Y-99789134D01*
X149901352Y-99788828D01*
X149577291Y-99922727D01*
X149329138Y-100170447D01*
X149194674Y-100494274D01*
X149194368Y-100844908D01*
X145794800Y-100844908D01*
X145794800Y-99851210D01*
X146942810Y-99851210D01*
X147050760Y-99743260D01*
X147050760Y-98445320D01*
X147101560Y-98445320D01*
X147101560Y-99743260D01*
X147209510Y-99851210D01*
X148411730Y-99851210D01*
X148570435Y-99785473D01*
X148691902Y-99664005D01*
X148757640Y-99505301D01*
X148757640Y-98553270D01*
X150893780Y-98553270D01*
X150893780Y-99505301D01*
X150959518Y-99664005D01*
X151080985Y-99785473D01*
X151239690Y-99851210D01*
X152441910Y-99851210D01*
X152549860Y-99743260D01*
X152549860Y-98445320D01*
X152600660Y-98445320D01*
X152600660Y-99743260D01*
X152708610Y-99851210D01*
X153910830Y-99851210D01*
X154069535Y-99785473D01*
X154191002Y-99664005D01*
X154256740Y-99505301D01*
X154256740Y-98553270D01*
X154148790Y-98445320D01*
X152600660Y-98445320D01*
X152549860Y-98445320D01*
X151001730Y-98445320D01*
X150893780Y-98553270D01*
X148757640Y-98553270D01*
X148649690Y-98445320D01*
X147101560Y-98445320D01*
X147050760Y-98445320D01*
X147030760Y-98445320D01*
X147030760Y-98394520D01*
X147050760Y-98394520D01*
X147050760Y-97096580D01*
X147101560Y-97096580D01*
X147101560Y-98394520D01*
X148649690Y-98394520D01*
X148757640Y-98286570D01*
X148757640Y-97334539D01*
X150893780Y-97334539D01*
X150893780Y-98286570D01*
X151001730Y-98394520D01*
X152549860Y-98394520D01*
X152549860Y-97096580D01*
X152600660Y-97096580D01*
X152600660Y-98394520D01*
X154148790Y-98394520D01*
X154256740Y-98286570D01*
X154256740Y-97334539D01*
X154191002Y-97175835D01*
X154069535Y-97054367D01*
X153910830Y-96988630D01*
X152708610Y-96988630D01*
X152600660Y-97096580D01*
X152549860Y-97096580D01*
X152441910Y-96988630D01*
X151239690Y-96988630D01*
X151080985Y-97054367D01*
X150959518Y-97175835D01*
X150893780Y-97334539D01*
X148757640Y-97334539D01*
X148691902Y-97175835D01*
X148570435Y-97054367D01*
X148411730Y-96988630D01*
X147209510Y-96988630D01*
X147101560Y-97096580D01*
X147050760Y-97096580D01*
X146942810Y-96988630D01*
X145794800Y-96988630D01*
X145794800Y-92454800D01*
X152240429Y-92454800D01*
X152169427Y-92558715D01*
G36*
X171136741Y-106172000D02*
X171166850Y-106332015D01*
X171170600Y-106337843D01*
X171170600Y-106495850D01*
X171196000Y-106521250D01*
X171196000Y-106629200D01*
X171240470Y-106852764D01*
X171299871Y-106941664D01*
X171367108Y-107042292D01*
X171564300Y-107239484D01*
X171564300Y-107327016D01*
X171165923Y-107725393D01*
X171272065Y-107469773D01*
X171272334Y-107161579D01*
X171154641Y-106876741D01*
X171081700Y-106803672D01*
X171081700Y-106533950D01*
X171119800Y-106495850D01*
X171119800Y-106213772D01*
X171128259Y-106172000D01*
X171128259Y-105491600D01*
X171136741Y-105491600D01*
X171136741Y-106172000D01*
X171136741Y-106172000D01*
G37*
X171136741Y-106172000D02*
X171166850Y-106332015D01*
X171170600Y-106337843D01*
X171170600Y-106495850D01*
X171196000Y-106521250D01*
X171196000Y-106629200D01*
X171240470Y-106852764D01*
X171299871Y-106941664D01*
X171367108Y-107042292D01*
X171564300Y-107239484D01*
X171564300Y-107327016D01*
X171165923Y-107725393D01*
X171272065Y-107469773D01*
X171272334Y-107161579D01*
X171154641Y-106876741D01*
X171081700Y-106803672D01*
X171081700Y-106533950D01*
X171119800Y-106495850D01*
X171119800Y-106213772D01*
X171128259Y-106172000D01*
X171128259Y-105491600D01*
X171136741Y-105491600D01*
X171136741Y-106172000D01*
G36*
X171036908Y-97694408D02*
X170910270Y-97883936D01*
X170865800Y-98107500D01*
X170865800Y-98818016D01*
X170719408Y-98964408D01*
X170592770Y-99153936D01*
X170590872Y-99163478D01*
X170510200Y-99244150D01*
X170510200Y-99526228D01*
X170501741Y-99568000D01*
X170501741Y-100838000D01*
X170510200Y-100882956D01*
X170510200Y-101161850D01*
X170618150Y-101269800D01*
X170748278Y-101269800D01*
X170675435Y-101445227D01*
X170675166Y-101753421D01*
X170792859Y-102038259D01*
X171010595Y-102256376D01*
X171170883Y-102322933D01*
X170827016Y-102666800D01*
X169799005Y-102666800D01*
X169799000Y-102666799D01*
X169575437Y-102711269D01*
X169575435Y-102711270D01*
X169575436Y-102711270D01*
X169385908Y-102837908D01*
X169385906Y-102837911D01*
X168910000Y-103313816D01*
X167919092Y-102322908D01*
X168078259Y-102257141D01*
X168296376Y-102039405D01*
X168414565Y-101754773D01*
X168414702Y-101598042D01*
X168433730Y-101569564D01*
X168478200Y-101346000D01*
X168478200Y-101278259D01*
X168611935Y-101278259D01*
X168649670Y-101467964D01*
X168705749Y-101551892D01*
X168770258Y-101648437D01*
X168770166Y-101753421D01*
X168887859Y-102038259D01*
X169105595Y-102256376D01*
X169390227Y-102374565D01*
X169698421Y-102374834D01*
X169983259Y-102257141D01*
X170201376Y-102039405D01*
X170319565Y-101754773D01*
X170319834Y-101446579D01*
X170246790Y-101269800D01*
X170351450Y-101269800D01*
X170459400Y-101161850D01*
X170459400Y-100879772D01*
X170467859Y-100838000D01*
X170467859Y-99568000D01*
X170459400Y-99523044D01*
X170459400Y-99244150D01*
X170372335Y-99157085D01*
X170364130Y-99115836D01*
X170237492Y-98926308D01*
X170129200Y-98818016D01*
X170129200Y-97714484D01*
X170739483Y-97104200D01*
X171627117Y-97104200D01*
X171036908Y-97694408D01*
X171036908Y-97694408D01*
G37*
X171036908Y-97694408D02*
X170910270Y-97883936D01*
X170865800Y-98107500D01*
X170865800Y-98818016D01*
X170719408Y-98964408D01*
X170592770Y-99153936D01*
X170590872Y-99163478D01*
X170510200Y-99244150D01*
X170510200Y-99526228D01*
X170501741Y-99568000D01*
X170501741Y-100838000D01*
X170510200Y-100882956D01*
X170510200Y-101161850D01*
X170618150Y-101269800D01*
X170748278Y-101269800D01*
X170675435Y-101445227D01*
X170675166Y-101753421D01*
X170792859Y-102038259D01*
X171010595Y-102256376D01*
X171170883Y-102322933D01*
X170827016Y-102666800D01*
X169799005Y-102666800D01*
X169799000Y-102666799D01*
X169575437Y-102711269D01*
X169575435Y-102711270D01*
X169575436Y-102711270D01*
X169385908Y-102837908D01*
X169385906Y-102837911D01*
X168910000Y-103313816D01*
X167919092Y-102322908D01*
X168078259Y-102257141D01*
X168296376Y-102039405D01*
X168414565Y-101754773D01*
X168414702Y-101598042D01*
X168433730Y-101569564D01*
X168478200Y-101346000D01*
X168478200Y-101278259D01*
X168611935Y-101278259D01*
X168649670Y-101467964D01*
X168705749Y-101551892D01*
X168770258Y-101648437D01*
X168770166Y-101753421D01*
X168887859Y-102038259D01*
X169105595Y-102256376D01*
X169390227Y-102374565D01*
X169698421Y-102374834D01*
X169983259Y-102257141D01*
X170201376Y-102039405D01*
X170319565Y-101754773D01*
X170319834Y-101446579D01*
X170246790Y-101269800D01*
X170351450Y-101269800D01*
X170459400Y-101161850D01*
X170459400Y-100879772D01*
X170467859Y-100838000D01*
X170467859Y-99568000D01*
X170459400Y-99523044D01*
X170459400Y-99244150D01*
X170372335Y-99157085D01*
X170364130Y-99115836D01*
X170237492Y-98926308D01*
X170129200Y-98818016D01*
X170129200Y-97714484D01*
X170739483Y-97104200D01*
X171627117Y-97104200D01*
X171036908Y-97694408D01*
M02*
