G04 #@! TF.FileFunction,Copper,L2,Bot,Signal*
%FSLAX46Y46*%
G04 Gerber Fmt 4.6, Leading zero omitted, Abs format (unit mm)*
G04 Created by KiCad (PCBNEW 4.0.3+e1-6302~38~ubuntu14.04.1-stable) date Tue Aug 16 14:14:18 2016*
%MOMM*%
%LPD*%
G01*
G04 APERTURE LIST*
%ADD10C,0.100000*%
%ADD11R,1.727200X2.032000*%
%ADD12O,1.727200X2.032000*%
%ADD13C,0.685800*%
%ADD14C,2.900000*%
%ADD15C,0.304800*%
%ADD16C,0.254000*%
G04 APERTURE END LIST*
D10*
D11*
X162560000Y-111760000D03*
D12*
X165100000Y-111760000D03*
X167640000Y-111760000D03*
X170180000Y-111760000D03*
X172720000Y-111760000D03*
X175260000Y-111760000D03*
X177800000Y-111760000D03*
X180340000Y-111760000D03*
D11*
X162560000Y-93980000D03*
D12*
X165100000Y-93980000D03*
X167640000Y-93980000D03*
X170180000Y-93980000D03*
X172720000Y-93980000D03*
X175260000Y-93980000D03*
X177800000Y-93980000D03*
X180340000Y-93980000D03*
D13*
X170497500Y-107315000D03*
X166052500Y-107315000D03*
X156210000Y-107315000D03*
X155575000Y-101600000D03*
D14*
X147750000Y-94500000D03*
X147750000Y-111250000D03*
X179600000Y-102800000D03*
D13*
X176149000Y-101346000D03*
X174802800Y-99060000D03*
X156845000Y-105410000D03*
X156845000Y-100965000D03*
X171450000Y-107315000D03*
X175260000Y-107315000D03*
X167640000Y-97155000D03*
X170497500Y-98742500D03*
X158178500Y-102552500D03*
X158178500Y-104140000D03*
X167640000Y-101600000D03*
X168910000Y-107315000D03*
X174498000Y-106553000D03*
X171450000Y-101600000D03*
X173037500Y-98107500D03*
X173990000Y-98107500D03*
X169545000Y-101600000D03*
D15*
X171132500Y-108013500D02*
X174053500Y-108013500D01*
X170497500Y-107378500D02*
X171132500Y-108013500D01*
X170497500Y-107315000D02*
X170497500Y-107378500D01*
X178371500Y-109791500D02*
X180340000Y-111760000D01*
X175831500Y-109791500D02*
X178371500Y-109791500D01*
X174053500Y-108013500D02*
X175831500Y-109791500D01*
X156210000Y-107315000D02*
X157797500Y-105727500D01*
X164782500Y-105727500D02*
X166052500Y-107315000D01*
X157797500Y-105727500D02*
X164782500Y-105727500D01*
X155575000Y-106680000D02*
X156210000Y-107315000D01*
X155575000Y-101600000D02*
X155575000Y-106680000D01*
X149100000Y-95848000D02*
X149098000Y-95848000D01*
X149098000Y-95848000D02*
X147750000Y-94500000D01*
X147700000Y-111300000D02*
X147750000Y-111250000D01*
X147700000Y-111300000D02*
X147750000Y-111250000D01*
X147750000Y-111250000D02*
X147750000Y-109650000D01*
X147750000Y-109650000D02*
X148000000Y-109400000D01*
X148000000Y-109400000D02*
X149098000Y-108302000D01*
X149100000Y-95848000D02*
X149600000Y-95848000D01*
X149600000Y-95848000D02*
X149900000Y-95848000D01*
X149900000Y-95848000D02*
X150600000Y-95848000D01*
X150600000Y-95848000D02*
X151728000Y-95848000D01*
X149098000Y-108302000D02*
X149098000Y-96800000D01*
X149098000Y-96800000D02*
X149098000Y-95848000D01*
X179600000Y-102800000D02*
X178000000Y-102800000D01*
X177603000Y-102800000D02*
X176149000Y-101346000D01*
X178000000Y-102800000D02*
X177603000Y-102800000D01*
X151728000Y-95848000D02*
X156845000Y-100965000D01*
X175260000Y-102235000D02*
X176149000Y-101346000D01*
X175260000Y-102235000D02*
X175260000Y-107315000D01*
X172402500Y-98742500D02*
X172720000Y-99060000D01*
X172720000Y-99060000D02*
X174802800Y-99060000D01*
X172402500Y-98742500D02*
X170497500Y-98742500D01*
X156845000Y-100965000D02*
X156845000Y-105410000D01*
X171450000Y-107315000D02*
X175260000Y-107315000D01*
X168910000Y-98425000D02*
X167640000Y-97155000D01*
X170180000Y-98425000D02*
X168910000Y-98425000D01*
X170497500Y-98742500D02*
X170180000Y-98425000D01*
X167640000Y-111760000D02*
X167640000Y-101600000D01*
X172720000Y-111760000D02*
X172701528Y-110807858D01*
X172701528Y-110807858D02*
X168910000Y-107315000D01*
X172701528Y-110807858D02*
X172701528Y-110807858D01*
X174498000Y-104521000D02*
X174498000Y-104298000D01*
X174498000Y-106553000D02*
X174498000Y-104521000D01*
X173900000Y-103700000D02*
X170375000Y-103700000D01*
X174498000Y-104298000D02*
X173900000Y-103700000D01*
X170375000Y-103700000D02*
X168592500Y-101917500D01*
X168592500Y-101917500D02*
X168592500Y-101282500D01*
X168592500Y-101282500D02*
X162560000Y-95250000D01*
X162560000Y-93980000D02*
X162560000Y-95250000D01*
X165100000Y-95885000D02*
X165100000Y-93980000D01*
X171450000Y-101600000D02*
X170497500Y-101600000D01*
X170497500Y-101600000D02*
X165100000Y-95885000D01*
X173037500Y-98107500D02*
X172720000Y-97790000D01*
X167640000Y-95885000D02*
X169862500Y-97790000D01*
X167640000Y-95885000D02*
X167640000Y-93980000D01*
X172720000Y-97790000D02*
X169862500Y-97790000D01*
X172720000Y-95885000D02*
X173990000Y-97155000D01*
X173990000Y-97155000D02*
X173990000Y-98107500D01*
X172720000Y-93980000D02*
X172720000Y-95885000D01*
X177800000Y-93980000D02*
X177800000Y-95885000D01*
X170307000Y-102362000D02*
X169545000Y-101600000D01*
X173228000Y-102362000D02*
X170307000Y-102362000D01*
X175514000Y-100076000D02*
X173228000Y-102362000D01*
X175514000Y-96647000D02*
X175514000Y-100076000D01*
X176022000Y-96139000D02*
X175514000Y-96647000D01*
X177546000Y-96139000D02*
X176022000Y-96139000D01*
X177800000Y-95885000D02*
X177546000Y-96139000D01*
D16*
G36*
X181865200Y-113285200D02*
X145794800Y-113285200D01*
X145794800Y-105244188D01*
X149194368Y-105244188D01*
X149328267Y-105568249D01*
X149575987Y-105816402D01*
X149899814Y-105950866D01*
X150250448Y-105951172D01*
X150574509Y-105817273D01*
X150822662Y-105569553D01*
X150957126Y-105245726D01*
X150957432Y-104895092D01*
X150823533Y-104571031D01*
X150575813Y-104322878D01*
X150251986Y-104188414D01*
X149901352Y-104188108D01*
X149577291Y-104322007D01*
X149329138Y-104569727D01*
X149194674Y-104893554D01*
X149194368Y-105244188D01*
X145794800Y-105244188D01*
X145794800Y-101753421D01*
X154800166Y-101753421D01*
X154917859Y-102038259D01*
X154990800Y-102111328D01*
X154990800Y-106680000D01*
X155035270Y-106903564D01*
X155160802Y-107091436D01*
X155161908Y-107093092D01*
X155435255Y-107366439D01*
X155435166Y-107468421D01*
X155552859Y-107753259D01*
X155770595Y-107971376D01*
X156055227Y-108089565D01*
X156363421Y-108089834D01*
X156648259Y-107972141D01*
X156866376Y-107754405D01*
X156984565Y-107469773D01*
X156984655Y-107366529D01*
X158039484Y-106311700D01*
X164501718Y-106311700D01*
X165277829Y-107281838D01*
X165277666Y-107468421D01*
X165395359Y-107753259D01*
X165613095Y-107971376D01*
X165897727Y-108089565D01*
X166205921Y-108089834D01*
X166490759Y-107972141D01*
X166708876Y-107754405D01*
X166827065Y-107469773D01*
X166827334Y-107161579D01*
X166709641Y-106876741D01*
X166491905Y-106658624D01*
X166207273Y-106540435D01*
X166180971Y-106540412D01*
X165238684Y-105362553D01*
X165213720Y-105341539D01*
X165195592Y-105314408D01*
X165127213Y-105268719D01*
X165064299Y-105215759D01*
X165033194Y-105205898D01*
X165006064Y-105187770D01*
X164925409Y-105171727D01*
X164847014Y-105146873D01*
X164814503Y-105149666D01*
X164782500Y-105143300D01*
X157797500Y-105143300D01*
X157573936Y-105187770D01*
X157448900Y-105271316D01*
X157384408Y-105314408D01*
X156210000Y-106488816D01*
X156159200Y-106438016D01*
X156159200Y-104293421D01*
X157403666Y-104293421D01*
X157521359Y-104578259D01*
X157739095Y-104796376D01*
X158023727Y-104914565D01*
X158331921Y-104914834D01*
X158616759Y-104797141D01*
X158834876Y-104579405D01*
X158953065Y-104294773D01*
X158953334Y-103986579D01*
X158835641Y-103701741D01*
X158617905Y-103483624D01*
X158333273Y-103365435D01*
X158025079Y-103365166D01*
X157740241Y-103482859D01*
X157522124Y-103700595D01*
X157403935Y-103985227D01*
X157403666Y-104293421D01*
X156159200Y-104293421D01*
X156159200Y-102705921D01*
X157403666Y-102705921D01*
X157521359Y-102990759D01*
X157739095Y-103208876D01*
X158023727Y-103327065D01*
X158331921Y-103327334D01*
X158616759Y-103209641D01*
X158834876Y-102991905D01*
X158953065Y-102707273D01*
X158953334Y-102399079D01*
X158835641Y-102114241D01*
X158617905Y-101896124D01*
X158333273Y-101777935D01*
X158025079Y-101777666D01*
X157740241Y-101895359D01*
X157522124Y-102113095D01*
X157403935Y-102397727D01*
X157403666Y-102705921D01*
X156159200Y-102705921D01*
X156159200Y-102111455D01*
X156231376Y-102039405D01*
X156349565Y-101754773D01*
X156349834Y-101446579D01*
X156232141Y-101161741D01*
X156014405Y-100943624D01*
X155729773Y-100825435D01*
X155421579Y-100825166D01*
X155136741Y-100942859D01*
X154918624Y-101160595D01*
X154800435Y-101445227D01*
X154800166Y-101753421D01*
X145794800Y-101753421D01*
X145794800Y-100844908D01*
X149194368Y-100844908D01*
X149328267Y-101168969D01*
X149575987Y-101417122D01*
X149899814Y-101551586D01*
X150250448Y-101551892D01*
X150574509Y-101417993D01*
X150822662Y-101170273D01*
X150957126Y-100846446D01*
X150957432Y-100495812D01*
X150823533Y-100171751D01*
X150575813Y-99923598D01*
X150251986Y-99789134D01*
X149901352Y-99788828D01*
X149577291Y-99922727D01*
X149329138Y-100170447D01*
X149194674Y-100494274D01*
X149194368Y-100844908D01*
X145794800Y-100844908D01*
X145794800Y-92964000D01*
X161256141Y-92964000D01*
X161256141Y-94996000D01*
X161286250Y-95156015D01*
X161380819Y-95302980D01*
X161525115Y-95401573D01*
X161696400Y-95436259D01*
X162012850Y-95436259D01*
X162020270Y-95473564D01*
X162074550Y-95554800D01*
X162146908Y-95663092D01*
X167360908Y-100877092D01*
X167201741Y-100942859D01*
X166983624Y-101160595D01*
X166865435Y-101445227D01*
X166865166Y-101753421D01*
X166982859Y-102038259D01*
X167055800Y-102111328D01*
X167055800Y-110441557D01*
X166724014Y-110663250D01*
X166443206Y-111083508D01*
X166370000Y-111451541D01*
X166296794Y-111083508D01*
X166015986Y-110663250D01*
X165595728Y-110382442D01*
X165100000Y-110283836D01*
X164604272Y-110382442D01*
X164184014Y-110663250D01*
X163903206Y-111083508D01*
X163863859Y-111281320D01*
X163863859Y-110744000D01*
X163833750Y-110583985D01*
X163739181Y-110437020D01*
X163594885Y-110338427D01*
X163423600Y-110303741D01*
X161696400Y-110303741D01*
X161536385Y-110333850D01*
X161389420Y-110428419D01*
X161290827Y-110572715D01*
X161256141Y-110744000D01*
X161256141Y-112776000D01*
X161286250Y-112936015D01*
X161380819Y-113082980D01*
X161525115Y-113181573D01*
X161696400Y-113216259D01*
X163423600Y-113216259D01*
X163583615Y-113186150D01*
X163730580Y-113091581D01*
X163829173Y-112947285D01*
X163863859Y-112776000D01*
X163863859Y-112238680D01*
X163903206Y-112436492D01*
X164184014Y-112856750D01*
X164604272Y-113137558D01*
X165100000Y-113236164D01*
X165595728Y-113137558D01*
X166015986Y-112856750D01*
X166296794Y-112436492D01*
X166370000Y-112068459D01*
X166443206Y-112436492D01*
X166724014Y-112856750D01*
X167144272Y-113137558D01*
X167640000Y-113236164D01*
X168135728Y-113137558D01*
X168555986Y-112856750D01*
X168836794Y-112436492D01*
X168910000Y-112068459D01*
X168983206Y-112436492D01*
X169264014Y-112856750D01*
X169684272Y-113137558D01*
X170180000Y-113236164D01*
X170675728Y-113137558D01*
X171095986Y-112856750D01*
X171376794Y-112436492D01*
X171450000Y-112068459D01*
X171523206Y-112436492D01*
X171804014Y-112856750D01*
X172224272Y-113137558D01*
X172720000Y-113236164D01*
X173215728Y-113137558D01*
X173635986Y-112856750D01*
X173916794Y-112436492D01*
X173991552Y-112060657D01*
X174072927Y-112431595D01*
X174361975Y-112846347D01*
X174787739Y-113118914D01*
X175032306Y-113187632D01*
X175234600Y-113099578D01*
X175234600Y-111785400D01*
X175214600Y-111785400D01*
X175214600Y-111734600D01*
X175234600Y-111734600D01*
X175234600Y-110420422D01*
X175032306Y-110332368D01*
X174787739Y-110401086D01*
X174361975Y-110673653D01*
X174072927Y-111088405D01*
X173991552Y-111459343D01*
X173916794Y-111083508D01*
X173635986Y-110663250D01*
X173215728Y-110382442D01*
X173070638Y-110353582D01*
X171164612Y-108597700D01*
X173811516Y-108597700D01*
X175418408Y-110204592D01*
X175607937Y-110331231D01*
X175831500Y-110375701D01*
X175831505Y-110375700D01*
X177338166Y-110375700D01*
X177304272Y-110382442D01*
X176884014Y-110663250D01*
X176603206Y-111083508D01*
X176528448Y-111459343D01*
X176447073Y-111088405D01*
X176158025Y-110673653D01*
X175732261Y-110401086D01*
X175487694Y-110332368D01*
X175285400Y-110420422D01*
X175285400Y-111734600D01*
X175305400Y-111734600D01*
X175305400Y-111785400D01*
X175285400Y-111785400D01*
X175285400Y-113099578D01*
X175487694Y-113187632D01*
X175732261Y-113118914D01*
X176158025Y-112846347D01*
X176447073Y-112431595D01*
X176528448Y-112060657D01*
X176603206Y-112436492D01*
X176884014Y-112856750D01*
X177304272Y-113137558D01*
X177800000Y-113236164D01*
X178295728Y-113137558D01*
X178715986Y-112856750D01*
X178996794Y-112436492D01*
X179070000Y-112068459D01*
X179143206Y-112436492D01*
X179424014Y-112856750D01*
X179844272Y-113137558D01*
X180340000Y-113236164D01*
X180835728Y-113137558D01*
X181255986Y-112856750D01*
X181536794Y-112436492D01*
X181635400Y-111940764D01*
X181635400Y-111579236D01*
X181536794Y-111083508D01*
X181255986Y-110663250D01*
X180835728Y-110382442D01*
X180340000Y-110283836D01*
X179844272Y-110382442D01*
X179810915Y-110404731D01*
X178784592Y-109378408D01*
X178595064Y-109251770D01*
X178371500Y-109207300D01*
X176073484Y-109207300D01*
X174466592Y-107600408D01*
X174461191Y-107596799D01*
X174277064Y-107473770D01*
X174053500Y-107429300D01*
X171374484Y-107429300D01*
X171272190Y-107327006D01*
X171272334Y-107161579D01*
X171154641Y-106876741D01*
X170936905Y-106658624D01*
X170652273Y-106540435D01*
X170344079Y-106540166D01*
X170059241Y-106657859D01*
X169841124Y-106875595D01*
X169722935Y-107160227D01*
X169722840Y-107269500D01*
X169684770Y-107234430D01*
X169684834Y-107161579D01*
X169567141Y-106876741D01*
X169349405Y-106658624D01*
X169064773Y-106540435D01*
X168756579Y-106540166D01*
X168471741Y-106657859D01*
X168253624Y-106875595D01*
X168224200Y-106946456D01*
X168224200Y-102375384D01*
X169961908Y-104113092D01*
X170151437Y-104239731D01*
X170375000Y-104284201D01*
X170375005Y-104284200D01*
X173658016Y-104284200D01*
X173913800Y-104539984D01*
X173913800Y-106041545D01*
X173841624Y-106113595D01*
X173723435Y-106398227D01*
X173723166Y-106706421D01*
X173840859Y-106991259D01*
X174058595Y-107209376D01*
X174343227Y-107327565D01*
X174651421Y-107327834D01*
X174936259Y-107210141D01*
X175154376Y-106992405D01*
X175272565Y-106707773D01*
X175272834Y-106399579D01*
X175155141Y-106114741D01*
X175082200Y-106041672D01*
X175082200Y-104298005D01*
X175082201Y-104298000D01*
X175037731Y-104074437D01*
X174911092Y-103884908D01*
X174313092Y-103286908D01*
X174196308Y-103208876D01*
X174123564Y-103160270D01*
X173900000Y-103115800D01*
X170616984Y-103115800D01*
X170447384Y-102946200D01*
X173228000Y-102946200D01*
X173451564Y-102901730D01*
X173641092Y-102775092D01*
X175927092Y-100489092D01*
X176053730Y-100299564D01*
X176098200Y-100076000D01*
X176098200Y-96888984D01*
X176263983Y-96723200D01*
X177546000Y-96723200D01*
X177769564Y-96678730D01*
X177959092Y-96552092D01*
X178213092Y-96298092D01*
X178319393Y-96139000D01*
X178339730Y-96108564D01*
X178384200Y-95885000D01*
X178384200Y-95298443D01*
X178715986Y-95076750D01*
X178996794Y-94656492D01*
X179070000Y-94288459D01*
X179143206Y-94656492D01*
X179424014Y-95076750D01*
X179844272Y-95357558D01*
X180340000Y-95456164D01*
X180835728Y-95357558D01*
X181255986Y-95076750D01*
X181536794Y-94656492D01*
X181635400Y-94160764D01*
X181635400Y-93799236D01*
X181536794Y-93303508D01*
X181255986Y-92883250D01*
X180835728Y-92602442D01*
X180340000Y-92503836D01*
X179844272Y-92602442D01*
X179424014Y-92883250D01*
X179143206Y-93303508D01*
X179070000Y-93671541D01*
X178996794Y-93303508D01*
X178715986Y-92883250D01*
X178295728Y-92602442D01*
X177800000Y-92503836D01*
X177304272Y-92602442D01*
X176884014Y-92883250D01*
X176603206Y-93303508D01*
X176530000Y-93671541D01*
X176456794Y-93303508D01*
X176175986Y-92883250D01*
X175755728Y-92602442D01*
X175260000Y-92503836D01*
X174764272Y-92602442D01*
X174344014Y-92883250D01*
X174063206Y-93303508D01*
X173990000Y-93671541D01*
X173916794Y-93303508D01*
X173635986Y-92883250D01*
X173215728Y-92602442D01*
X172720000Y-92503836D01*
X172224272Y-92602442D01*
X171804014Y-92883250D01*
X171523206Y-93303508D01*
X171450000Y-93671541D01*
X171376794Y-93303508D01*
X171095986Y-92883250D01*
X170675728Y-92602442D01*
X170180000Y-92503836D01*
X169684272Y-92602442D01*
X169264014Y-92883250D01*
X168983206Y-93303508D01*
X168910000Y-93671541D01*
X168836794Y-93303508D01*
X168555986Y-92883250D01*
X168135728Y-92602442D01*
X167640000Y-92503836D01*
X167144272Y-92602442D01*
X166724014Y-92883250D01*
X166443206Y-93303508D01*
X166370000Y-93671541D01*
X166296794Y-93303508D01*
X166015986Y-92883250D01*
X165595728Y-92602442D01*
X165100000Y-92503836D01*
X164604272Y-92602442D01*
X164184014Y-92883250D01*
X163903206Y-93303508D01*
X163863859Y-93501320D01*
X163863859Y-92964000D01*
X163833750Y-92803985D01*
X163739181Y-92657020D01*
X163594885Y-92558427D01*
X163423600Y-92523741D01*
X161696400Y-92523741D01*
X161536385Y-92553850D01*
X161389420Y-92648419D01*
X161290827Y-92792715D01*
X161256141Y-92964000D01*
X145794800Y-92964000D01*
X145794800Y-92454800D01*
X181865200Y-92454800D01*
X181865200Y-113285200D01*
X181865200Y-113285200D01*
G37*
X181865200Y-113285200D02*
X145794800Y-113285200D01*
X145794800Y-105244188D01*
X149194368Y-105244188D01*
X149328267Y-105568249D01*
X149575987Y-105816402D01*
X149899814Y-105950866D01*
X150250448Y-105951172D01*
X150574509Y-105817273D01*
X150822662Y-105569553D01*
X150957126Y-105245726D01*
X150957432Y-104895092D01*
X150823533Y-104571031D01*
X150575813Y-104322878D01*
X150251986Y-104188414D01*
X149901352Y-104188108D01*
X149577291Y-104322007D01*
X149329138Y-104569727D01*
X149194674Y-104893554D01*
X149194368Y-105244188D01*
X145794800Y-105244188D01*
X145794800Y-101753421D01*
X154800166Y-101753421D01*
X154917859Y-102038259D01*
X154990800Y-102111328D01*
X154990800Y-106680000D01*
X155035270Y-106903564D01*
X155160802Y-107091436D01*
X155161908Y-107093092D01*
X155435255Y-107366439D01*
X155435166Y-107468421D01*
X155552859Y-107753259D01*
X155770595Y-107971376D01*
X156055227Y-108089565D01*
X156363421Y-108089834D01*
X156648259Y-107972141D01*
X156866376Y-107754405D01*
X156984565Y-107469773D01*
X156984655Y-107366529D01*
X158039484Y-106311700D01*
X164501718Y-106311700D01*
X165277829Y-107281838D01*
X165277666Y-107468421D01*
X165395359Y-107753259D01*
X165613095Y-107971376D01*
X165897727Y-108089565D01*
X166205921Y-108089834D01*
X166490759Y-107972141D01*
X166708876Y-107754405D01*
X166827065Y-107469773D01*
X166827334Y-107161579D01*
X166709641Y-106876741D01*
X166491905Y-106658624D01*
X166207273Y-106540435D01*
X166180971Y-106540412D01*
X165238684Y-105362553D01*
X165213720Y-105341539D01*
X165195592Y-105314408D01*
X165127213Y-105268719D01*
X165064299Y-105215759D01*
X165033194Y-105205898D01*
X165006064Y-105187770D01*
X164925409Y-105171727D01*
X164847014Y-105146873D01*
X164814503Y-105149666D01*
X164782500Y-105143300D01*
X157797500Y-105143300D01*
X157573936Y-105187770D01*
X157448900Y-105271316D01*
X157384408Y-105314408D01*
X156210000Y-106488816D01*
X156159200Y-106438016D01*
X156159200Y-104293421D01*
X157403666Y-104293421D01*
X157521359Y-104578259D01*
X157739095Y-104796376D01*
X158023727Y-104914565D01*
X158331921Y-104914834D01*
X158616759Y-104797141D01*
X158834876Y-104579405D01*
X158953065Y-104294773D01*
X158953334Y-103986579D01*
X158835641Y-103701741D01*
X158617905Y-103483624D01*
X158333273Y-103365435D01*
X158025079Y-103365166D01*
X157740241Y-103482859D01*
X157522124Y-103700595D01*
X157403935Y-103985227D01*
X157403666Y-104293421D01*
X156159200Y-104293421D01*
X156159200Y-102705921D01*
X157403666Y-102705921D01*
X157521359Y-102990759D01*
X157739095Y-103208876D01*
X158023727Y-103327065D01*
X158331921Y-103327334D01*
X158616759Y-103209641D01*
X158834876Y-102991905D01*
X158953065Y-102707273D01*
X158953334Y-102399079D01*
X158835641Y-102114241D01*
X158617905Y-101896124D01*
X158333273Y-101777935D01*
X158025079Y-101777666D01*
X157740241Y-101895359D01*
X157522124Y-102113095D01*
X157403935Y-102397727D01*
X157403666Y-102705921D01*
X156159200Y-102705921D01*
X156159200Y-102111455D01*
X156231376Y-102039405D01*
X156349565Y-101754773D01*
X156349834Y-101446579D01*
X156232141Y-101161741D01*
X156014405Y-100943624D01*
X155729773Y-100825435D01*
X155421579Y-100825166D01*
X155136741Y-100942859D01*
X154918624Y-101160595D01*
X154800435Y-101445227D01*
X154800166Y-101753421D01*
X145794800Y-101753421D01*
X145794800Y-100844908D01*
X149194368Y-100844908D01*
X149328267Y-101168969D01*
X149575987Y-101417122D01*
X149899814Y-101551586D01*
X150250448Y-101551892D01*
X150574509Y-101417993D01*
X150822662Y-101170273D01*
X150957126Y-100846446D01*
X150957432Y-100495812D01*
X150823533Y-100171751D01*
X150575813Y-99923598D01*
X150251986Y-99789134D01*
X149901352Y-99788828D01*
X149577291Y-99922727D01*
X149329138Y-100170447D01*
X149194674Y-100494274D01*
X149194368Y-100844908D01*
X145794800Y-100844908D01*
X145794800Y-92964000D01*
X161256141Y-92964000D01*
X161256141Y-94996000D01*
X161286250Y-95156015D01*
X161380819Y-95302980D01*
X161525115Y-95401573D01*
X161696400Y-95436259D01*
X162012850Y-95436259D01*
X162020270Y-95473564D01*
X162074550Y-95554800D01*
X162146908Y-95663092D01*
X167360908Y-100877092D01*
X167201741Y-100942859D01*
X166983624Y-101160595D01*
X166865435Y-101445227D01*
X166865166Y-101753421D01*
X166982859Y-102038259D01*
X167055800Y-102111328D01*
X167055800Y-110441557D01*
X166724014Y-110663250D01*
X166443206Y-111083508D01*
X166370000Y-111451541D01*
X166296794Y-111083508D01*
X166015986Y-110663250D01*
X165595728Y-110382442D01*
X165100000Y-110283836D01*
X164604272Y-110382442D01*
X164184014Y-110663250D01*
X163903206Y-111083508D01*
X163863859Y-111281320D01*
X163863859Y-110744000D01*
X163833750Y-110583985D01*
X163739181Y-110437020D01*
X163594885Y-110338427D01*
X163423600Y-110303741D01*
X161696400Y-110303741D01*
X161536385Y-110333850D01*
X161389420Y-110428419D01*
X161290827Y-110572715D01*
X161256141Y-110744000D01*
X161256141Y-112776000D01*
X161286250Y-112936015D01*
X161380819Y-113082980D01*
X161525115Y-113181573D01*
X161696400Y-113216259D01*
X163423600Y-113216259D01*
X163583615Y-113186150D01*
X163730580Y-113091581D01*
X163829173Y-112947285D01*
X163863859Y-112776000D01*
X163863859Y-112238680D01*
X163903206Y-112436492D01*
X164184014Y-112856750D01*
X164604272Y-113137558D01*
X165100000Y-113236164D01*
X165595728Y-113137558D01*
X166015986Y-112856750D01*
X166296794Y-112436492D01*
X166370000Y-112068459D01*
X166443206Y-112436492D01*
X166724014Y-112856750D01*
X167144272Y-113137558D01*
X167640000Y-113236164D01*
X168135728Y-113137558D01*
X168555986Y-112856750D01*
X168836794Y-112436492D01*
X168910000Y-112068459D01*
X168983206Y-112436492D01*
X169264014Y-112856750D01*
X169684272Y-113137558D01*
X170180000Y-113236164D01*
X170675728Y-113137558D01*
X171095986Y-112856750D01*
X171376794Y-112436492D01*
X171450000Y-112068459D01*
X171523206Y-112436492D01*
X171804014Y-112856750D01*
X172224272Y-113137558D01*
X172720000Y-113236164D01*
X173215728Y-113137558D01*
X173635986Y-112856750D01*
X173916794Y-112436492D01*
X173991552Y-112060657D01*
X174072927Y-112431595D01*
X174361975Y-112846347D01*
X174787739Y-113118914D01*
X175032306Y-113187632D01*
X175234600Y-113099578D01*
X175234600Y-111785400D01*
X175214600Y-111785400D01*
X175214600Y-111734600D01*
X175234600Y-111734600D01*
X175234600Y-110420422D01*
X175032306Y-110332368D01*
X174787739Y-110401086D01*
X174361975Y-110673653D01*
X174072927Y-111088405D01*
X173991552Y-111459343D01*
X173916794Y-111083508D01*
X173635986Y-110663250D01*
X173215728Y-110382442D01*
X173070638Y-110353582D01*
X171164612Y-108597700D01*
X173811516Y-108597700D01*
X175418408Y-110204592D01*
X175607937Y-110331231D01*
X175831500Y-110375701D01*
X175831505Y-110375700D01*
X177338166Y-110375700D01*
X177304272Y-110382442D01*
X176884014Y-110663250D01*
X176603206Y-111083508D01*
X176528448Y-111459343D01*
X176447073Y-111088405D01*
X176158025Y-110673653D01*
X175732261Y-110401086D01*
X175487694Y-110332368D01*
X175285400Y-110420422D01*
X175285400Y-111734600D01*
X175305400Y-111734600D01*
X175305400Y-111785400D01*
X175285400Y-111785400D01*
X175285400Y-113099578D01*
X175487694Y-113187632D01*
X175732261Y-113118914D01*
X176158025Y-112846347D01*
X176447073Y-112431595D01*
X176528448Y-112060657D01*
X176603206Y-112436492D01*
X176884014Y-112856750D01*
X177304272Y-113137558D01*
X177800000Y-113236164D01*
X178295728Y-113137558D01*
X178715986Y-112856750D01*
X178996794Y-112436492D01*
X179070000Y-112068459D01*
X179143206Y-112436492D01*
X179424014Y-112856750D01*
X179844272Y-113137558D01*
X180340000Y-113236164D01*
X180835728Y-113137558D01*
X181255986Y-112856750D01*
X181536794Y-112436492D01*
X181635400Y-111940764D01*
X181635400Y-111579236D01*
X181536794Y-111083508D01*
X181255986Y-110663250D01*
X180835728Y-110382442D01*
X180340000Y-110283836D01*
X179844272Y-110382442D01*
X179810915Y-110404731D01*
X178784592Y-109378408D01*
X178595064Y-109251770D01*
X178371500Y-109207300D01*
X176073484Y-109207300D01*
X174466592Y-107600408D01*
X174461191Y-107596799D01*
X174277064Y-107473770D01*
X174053500Y-107429300D01*
X171374484Y-107429300D01*
X171272190Y-107327006D01*
X171272334Y-107161579D01*
X171154641Y-106876741D01*
X170936905Y-106658624D01*
X170652273Y-106540435D01*
X170344079Y-106540166D01*
X170059241Y-106657859D01*
X169841124Y-106875595D01*
X169722935Y-107160227D01*
X169722840Y-107269500D01*
X169684770Y-107234430D01*
X169684834Y-107161579D01*
X169567141Y-106876741D01*
X169349405Y-106658624D01*
X169064773Y-106540435D01*
X168756579Y-106540166D01*
X168471741Y-106657859D01*
X168253624Y-106875595D01*
X168224200Y-106946456D01*
X168224200Y-102375384D01*
X169961908Y-104113092D01*
X170151437Y-104239731D01*
X170375000Y-104284201D01*
X170375005Y-104284200D01*
X173658016Y-104284200D01*
X173913800Y-104539984D01*
X173913800Y-106041545D01*
X173841624Y-106113595D01*
X173723435Y-106398227D01*
X173723166Y-106706421D01*
X173840859Y-106991259D01*
X174058595Y-107209376D01*
X174343227Y-107327565D01*
X174651421Y-107327834D01*
X174936259Y-107210141D01*
X175154376Y-106992405D01*
X175272565Y-106707773D01*
X175272834Y-106399579D01*
X175155141Y-106114741D01*
X175082200Y-106041672D01*
X175082200Y-104298005D01*
X175082201Y-104298000D01*
X175037731Y-104074437D01*
X174911092Y-103884908D01*
X174313092Y-103286908D01*
X174196308Y-103208876D01*
X174123564Y-103160270D01*
X173900000Y-103115800D01*
X170616984Y-103115800D01*
X170447384Y-102946200D01*
X173228000Y-102946200D01*
X173451564Y-102901730D01*
X173641092Y-102775092D01*
X175927092Y-100489092D01*
X176053730Y-100299564D01*
X176098200Y-100076000D01*
X176098200Y-96888984D01*
X176263983Y-96723200D01*
X177546000Y-96723200D01*
X177769564Y-96678730D01*
X177959092Y-96552092D01*
X178213092Y-96298092D01*
X178319393Y-96139000D01*
X178339730Y-96108564D01*
X178384200Y-95885000D01*
X178384200Y-95298443D01*
X178715986Y-95076750D01*
X178996794Y-94656492D01*
X179070000Y-94288459D01*
X179143206Y-94656492D01*
X179424014Y-95076750D01*
X179844272Y-95357558D01*
X180340000Y-95456164D01*
X180835728Y-95357558D01*
X181255986Y-95076750D01*
X181536794Y-94656492D01*
X181635400Y-94160764D01*
X181635400Y-93799236D01*
X181536794Y-93303508D01*
X181255986Y-92883250D01*
X180835728Y-92602442D01*
X180340000Y-92503836D01*
X179844272Y-92602442D01*
X179424014Y-92883250D01*
X179143206Y-93303508D01*
X179070000Y-93671541D01*
X178996794Y-93303508D01*
X178715986Y-92883250D01*
X178295728Y-92602442D01*
X177800000Y-92503836D01*
X177304272Y-92602442D01*
X176884014Y-92883250D01*
X176603206Y-93303508D01*
X176530000Y-93671541D01*
X176456794Y-93303508D01*
X176175986Y-92883250D01*
X175755728Y-92602442D01*
X175260000Y-92503836D01*
X174764272Y-92602442D01*
X174344014Y-92883250D01*
X174063206Y-93303508D01*
X173990000Y-93671541D01*
X173916794Y-93303508D01*
X173635986Y-92883250D01*
X173215728Y-92602442D01*
X172720000Y-92503836D01*
X172224272Y-92602442D01*
X171804014Y-92883250D01*
X171523206Y-93303508D01*
X171450000Y-93671541D01*
X171376794Y-93303508D01*
X171095986Y-92883250D01*
X170675728Y-92602442D01*
X170180000Y-92503836D01*
X169684272Y-92602442D01*
X169264014Y-92883250D01*
X168983206Y-93303508D01*
X168910000Y-93671541D01*
X168836794Y-93303508D01*
X168555986Y-92883250D01*
X168135728Y-92602442D01*
X167640000Y-92503836D01*
X167144272Y-92602442D01*
X166724014Y-92883250D01*
X166443206Y-93303508D01*
X166370000Y-93671541D01*
X166296794Y-93303508D01*
X166015986Y-92883250D01*
X165595728Y-92602442D01*
X165100000Y-92503836D01*
X164604272Y-92602442D01*
X164184014Y-92883250D01*
X163903206Y-93303508D01*
X163863859Y-93501320D01*
X163863859Y-92964000D01*
X163833750Y-92803985D01*
X163739181Y-92657020D01*
X163594885Y-92558427D01*
X163423600Y-92523741D01*
X161696400Y-92523741D01*
X161536385Y-92553850D01*
X161389420Y-92648419D01*
X161290827Y-92792715D01*
X161256141Y-92964000D01*
X145794800Y-92964000D01*
X145794800Y-92454800D01*
X181865200Y-92454800D01*
X181865200Y-113285200D01*
G36*
X176603206Y-94656492D02*
X176884014Y-95076750D01*
X177215800Y-95298443D01*
X177215800Y-95554800D01*
X176022000Y-95554800D01*
X175798436Y-95599270D01*
X175608908Y-95725908D01*
X175608906Y-95725911D01*
X175100908Y-96233908D01*
X174974270Y-96423436D01*
X174929800Y-96647000D01*
X174929800Y-99834016D01*
X172986016Y-101777800D01*
X172215003Y-101777800D01*
X172224565Y-101754773D01*
X172224834Y-101446579D01*
X172107141Y-101161741D01*
X171889405Y-100943624D01*
X171604773Y-100825435D01*
X171296579Y-100825166D01*
X171011741Y-100942859D01*
X170938672Y-101015800D01*
X170749317Y-101015800D01*
X165684200Y-95652735D01*
X165684200Y-95298443D01*
X166015986Y-95076750D01*
X166296794Y-94656492D01*
X166370000Y-94288459D01*
X166443206Y-94656492D01*
X166724014Y-95076750D01*
X167055800Y-95298443D01*
X167055800Y-95885000D01*
X167060229Y-95907264D01*
X167057520Y-95929806D01*
X167082329Y-96018371D01*
X167100270Y-96108564D01*
X167112882Y-96127440D01*
X167119006Y-96149300D01*
X167175811Y-96221620D01*
X167226908Y-96298092D01*
X167245785Y-96310705D01*
X167259808Y-96328558D01*
X169482307Y-98233557D01*
X169562464Y-98278634D01*
X169638936Y-98329730D01*
X169661203Y-98334159D01*
X169680991Y-98345287D01*
X169772299Y-98356258D01*
X169862500Y-98374200D01*
X172309472Y-98374200D01*
X172380359Y-98545759D01*
X172598095Y-98763876D01*
X172882727Y-98882065D01*
X173190921Y-98882334D01*
X173475759Y-98764641D01*
X173513625Y-98726841D01*
X173550595Y-98763876D01*
X173835227Y-98882065D01*
X174143421Y-98882334D01*
X174428259Y-98764641D01*
X174646376Y-98546905D01*
X174764565Y-98262273D01*
X174764834Y-97954079D01*
X174647141Y-97669241D01*
X174574200Y-97596172D01*
X174574200Y-97155000D01*
X174529730Y-96931436D01*
X174403092Y-96741908D01*
X173304200Y-95643016D01*
X173304200Y-95298443D01*
X173635986Y-95076750D01*
X173916794Y-94656492D01*
X173990000Y-94288459D01*
X174063206Y-94656492D01*
X174344014Y-95076750D01*
X174764272Y-95357558D01*
X175260000Y-95456164D01*
X175755728Y-95357558D01*
X176175986Y-95076750D01*
X176456794Y-94656492D01*
X176530000Y-94288459D01*
X176603206Y-94656492D01*
X176603206Y-94656492D01*
G37*
X176603206Y-94656492D02*
X176884014Y-95076750D01*
X177215800Y-95298443D01*
X177215800Y-95554800D01*
X176022000Y-95554800D01*
X175798436Y-95599270D01*
X175608908Y-95725908D01*
X175608906Y-95725911D01*
X175100908Y-96233908D01*
X174974270Y-96423436D01*
X174929800Y-96647000D01*
X174929800Y-99834016D01*
X172986016Y-101777800D01*
X172215003Y-101777800D01*
X172224565Y-101754773D01*
X172224834Y-101446579D01*
X172107141Y-101161741D01*
X171889405Y-100943624D01*
X171604773Y-100825435D01*
X171296579Y-100825166D01*
X171011741Y-100942859D01*
X170938672Y-101015800D01*
X170749317Y-101015800D01*
X165684200Y-95652735D01*
X165684200Y-95298443D01*
X166015986Y-95076750D01*
X166296794Y-94656492D01*
X166370000Y-94288459D01*
X166443206Y-94656492D01*
X166724014Y-95076750D01*
X167055800Y-95298443D01*
X167055800Y-95885000D01*
X167060229Y-95907264D01*
X167057520Y-95929806D01*
X167082329Y-96018371D01*
X167100270Y-96108564D01*
X167112882Y-96127440D01*
X167119006Y-96149300D01*
X167175811Y-96221620D01*
X167226908Y-96298092D01*
X167245785Y-96310705D01*
X167259808Y-96328558D01*
X169482307Y-98233557D01*
X169562464Y-98278634D01*
X169638936Y-98329730D01*
X169661203Y-98334159D01*
X169680991Y-98345287D01*
X169772299Y-98356258D01*
X169862500Y-98374200D01*
X172309472Y-98374200D01*
X172380359Y-98545759D01*
X172598095Y-98763876D01*
X172882727Y-98882065D01*
X173190921Y-98882334D01*
X173475759Y-98764641D01*
X173513625Y-98726841D01*
X173550595Y-98763876D01*
X173835227Y-98882065D01*
X174143421Y-98882334D01*
X174428259Y-98764641D01*
X174646376Y-98546905D01*
X174764565Y-98262273D01*
X174764834Y-97954079D01*
X174647141Y-97669241D01*
X174574200Y-97596172D01*
X174574200Y-97155000D01*
X174529730Y-96931436D01*
X174403092Y-96741908D01*
X173304200Y-95643016D01*
X173304200Y-95298443D01*
X173635986Y-95076750D01*
X173916794Y-94656492D01*
X173990000Y-94288459D01*
X174063206Y-94656492D01*
X174344014Y-95076750D01*
X174764272Y-95357558D01*
X175260000Y-95456164D01*
X175755728Y-95357558D01*
X176175986Y-95076750D01*
X176456794Y-94656492D01*
X176530000Y-94288459D01*
X176603206Y-94656492D01*
M02*
