G04 #@! TF.FileFunction,Soldermask,Bot*
%FSLAX46Y46*%
G04 Gerber Fmt 4.6, Leading zero omitted, Abs format (unit mm)*
G04 Created by KiCad (PCBNEW 4.0.3+e1-6302~38~ubuntu14.04.1-stable) date Tue Aug 16 14:14:18 2016*
%MOMM*%
%LPD*%
G01*
G04 APERTURE LIST*
%ADD10C,0.100000*%
%ADD11C,1.299160*%
%ADD12R,2.127200X2.432000*%
%ADD13O,2.127200X2.432000*%
%ADD14C,1.085800*%
%ADD15C,3.300000*%
G04 APERTURE END LIST*
D10*
D11*
X150075900Y-100670360D03*
X150075900Y-105069640D03*
D12*
X162560000Y-111760000D03*
D13*
X165100000Y-111760000D03*
X167640000Y-111760000D03*
X170180000Y-111760000D03*
X172720000Y-111760000D03*
X175260000Y-111760000D03*
X177800000Y-111760000D03*
X180340000Y-111760000D03*
D12*
X162560000Y-93980000D03*
D13*
X165100000Y-93980000D03*
X167640000Y-93980000D03*
X170180000Y-93980000D03*
X172720000Y-93980000D03*
X175260000Y-93980000D03*
X177800000Y-93980000D03*
X180340000Y-93980000D03*
D14*
X170497500Y-107315000D03*
X166052500Y-107315000D03*
X156210000Y-107315000D03*
X155575000Y-101600000D03*
D15*
X147750000Y-94500000D03*
X147750000Y-111250000D03*
X179600000Y-102800000D03*
D14*
X176149000Y-101346000D03*
X174802800Y-99060000D03*
X156845000Y-105410000D03*
X156845000Y-100965000D03*
X171450000Y-107315000D03*
X175260000Y-107315000D03*
X167640000Y-97155000D03*
X170497500Y-98742500D03*
X158178500Y-102552500D03*
X158178500Y-104140000D03*
X167640000Y-101600000D03*
X168910000Y-107315000D03*
X174498000Y-106553000D03*
X171450000Y-101600000D03*
X173037500Y-98107500D03*
X173990000Y-98107500D03*
X169545000Y-101600000D03*
M02*
